<?xml version="1.0" encoding="UTF-8" standalone="no"?>
<!-- Created with Inkscape (http://www.inkscape.org/) -->

<svg
   width="544"
   height="480"
   viewBox="0 0 143.93334 127"
   version="1.1"
   id="svg5"
   inkscape:version="1.1.2 (b8e25be833, 2022-02-05)"
   sodipodi:docname="africa.svg"
   xmlns:inkscape="http://www.inkscape.org/namespaces/inkscape"
   xmlns:sodipodi="http://sodipodi.sourceforge.net/DTD/sodipodi-0.dtd"
   xmlns="http://www.w3.org/2000/svg"
   xmlns:svg="http://www.w3.org/2000/svg">
  <sodipodi:namedview
     id="namedview7"
     pagecolor="#ffffff"
     bordercolor="#666666"
     borderopacity="1.0"
     inkscape:pageshadow="2"
     inkscape:pageopacity="0.0"
     inkscape:pagecheckerboard="0"
     inkscape:document-units="mm"
     showgrid="false"
     units="px"
     inkscape:zoom="0.38796647"
     inkscape:cx="220.37987"
     inkscape:cy="646.96313"
     inkscape:window-width="1920"
     inkscape:window-height="1057"
     inkscape:window-x="-8"
     inkscape:window-y="-8"
     inkscape:window-maximized="1"
     inkscape:current-layer="layer1" />
  <defs
     id="defs2" />
  <g
     inkscape:label="Layer 1"
     inkscape:groupmode="layer"
     id="layer1">
    <path
       id="path18576"
       style="fill:#009fe3;stroke-width:0.353757;fill-opacity:1"
       d="m 116.44951,108.68912 c -0.46104,-0.28409 -0.83825,-0.65736 -0.83825,-0.82951 0,-0.17214 0.33944,-0.0144 0.75433,0.35062 0.85389,0.7512 1.63254,0.82244 3.32293,0.30404 0.95044,-0.29147 1.32513,-0.71564 1.97852,-2.23966 1.56256,-3.64492 4.50489,-11.671218 4.50489,-12.288905 0,-0.343922 0.26896,-0.821683 0.59766,-1.061689 0.45891,-0.335042 0.54258,-0.78748 0.3604,-1.948494 -0.26434,-1.684663 -0.91234,-3.337036 -1.30865,-3.337036 -0.14248,0 -0.75837,0.611606 -1.36861,1.359121 -2.1656,2.652706 -3.14659,3.489074 -4.97687,4.243229 -2.28825,0.942866 -2.84026,2.025246 -2.49874,4.899756 0.21247,1.78806 0.1324,2.134098 -0.7916,3.421728 -0.92568,1.29 -1.00861,1.65066 -0.83377,3.62546 l 0.19417,2.19295 -0.40208,-2.10556 c -0.36316,-1.90161 -0.32344,-2.24797 0.40982,-3.57575 0.58855,-1.06569 0.81193,-2.093158 0.81193,-3.734418 0,-3.3606 0.44647,-4.18143 2.78715,-5.12414 1.08235,-0.435924 2.38312,-1.267249 2.8906,-1.847395 0.50745,-0.580146 1.3894,-1.502837 1.95987,-2.05043 0.57048,-0.547593 1.03722,-1.139787 1.03722,-1.315988 0,-0.1762 0.25022,-0.320367 0.55604,-0.320367 1.44461,0 2.59646,4.575334 1.61157,6.401363 -0.31569,0.585302 -1.45627,3.433297 -2.53461,6.328865 -2.76708,7.43019 -3.13422,8.10778 -4.70636,8.68565 -1.67806,0.61681 -2.47455,0.60924 -3.51756,-0.0335 z M 74.6674,17.162991 c -0.415215,-0.255846 -1.471774,-0.634987 -2.347927,-0.842537 -0.924978,-0.219118 -1.837514,-0.705671 -2.176109,-1.160281 -0.637728,-0.856224 -1.893645,-1.3707 -3.953283,-1.619428 -1.39059,-0.16793 -4.092819,-1.495809 -4.120437,-2.024801 -0.0089,-0.168121 0.258738,-0.57271 0.594482,-0.899083 0.440515,-0.428215 0.528827,-0.8511499 0.317225,-1.5192409 -0.161287,-0.509207 -0.257401,-1.177697 -0.213616,-1.485544 0.112938,-0.79381 -1.285093,-1.353338 -2.698891,-1.080166 -1.31818,0.254698 -4.104534,0.443763 -6.689993,0.453943 -0.933476,0.0037 -2.917588,0.280618 -4.409111,0.615433 -3.196045,0.717438 -3.313456,0.450922 -0.222756,-0.505647 2.427787,-0.751402 12.191692,-1.528471 13.965239,-1.111434 0.981795,0.230859 1.042446,0.357211 1.106987,2.305752 0.05691,1.7171319 -0.05338,2.1283539 -0.660041,2.4616459 -0.400585,0.22008 -0.728329,0.486037 -0.728329,0.591031 0,0.42283 2.906296,1.559492 4.030953,1.576523 1.416198,0.02142 2.490481,0.476117 4.18554,1.77144 0.681393,0.520713 1.59038,0.94675 2.019975,0.94675 0.429574,0 1.293659,0.379462 1.920178,0.843234 1.380558,1.021936 1.985231,0.907727 1.992701,-0.376376 0.0076,-1.199155 0.455565,-1.855194 1.783184,-2.607925 1.208914,-0.685419 2.444728,-0.581641 5.754525,0.483238 1.244655,0.400446 3.41093,0.997559 4.813953,1.326928 2.381524,0.559059 2.677296,0.563291 4.453126,0.06367 1.943552,-0.546776 2.936267,-0.374439 3.294876,0.571972 0.126775,0.334598 -0.01241,0.34185 -0.665104,0.0346 -0.659598,-0.310557 -1.192942,-0.2724 -2.654389,0.189924 -1.743458,0.551534 -1.949278,0.550932 -4.404197,-0.01295 -3.74265,-0.859675 -5.47301,-1.381121 -7.179308,-2.16352 -1.174787,-0.538692 -1.728511,-0.622483 -2.47145,-0.373989 -1.132947,0.378937 -2.186388,1.586207 -1.918997,2.199206 0.28283,0.648418 -0.556609,1.812744 -1.30693,1.812744 -0.361419,0 -0.996847,-0.209326 -1.412076,-0.465174 z m 0.869225,106.694579 c -1.109804,-0.58841 -1.754451,-1.92211 -1.709383,-3.53655 0.03194,-1.14636 -1.525263,-4.50678 -3.10216,-6.69423 -1.108921,-1.53827 -1.559081,-2.93964 -2.432737,-7.57327 -0.335204,-1.77782 -1.061731,-3.69539 -2.199993,-5.80653 -0.934715,-1.733678 -1.811907,-3.763268 -1.949312,-4.510208 -0.308833,-1.678797 0.989543,-6.506785 2.121119,-7.887332 0.66045,-0.805782 0.740087,-1.2348 0.523522,-2.820321 -0.140475,-1.028484 -0.311907,-2.419958 -0.380969,-3.092155 -0.262672,-2.557212 -2.07596,-6.44201 -4.139489,-8.86844 -2.584663,-3.039223 -3.100437,-4.100182 -2.529339,-5.202856 0.23648,-0.456596 0.42996,-1.365742 0.42996,-2.020322 0,-0.654581 0.197258,-1.769321 0.438335,-2.477201 0.397834,-1.168135 0.359606,-1.360758 -0.413769,-2.084958 -0.754121,-0.706187 -1.082661,-0.776991 -2.857613,-0.61583 -2.125913,0.193029 -2.664885,-0.08502 -4.363656,-2.250989 -0.50973,-0.649925 -0.898844,-0.75331 -2.680149,-0.712076 -1.254138,0.02906 -3.119113,0.404818 -4.684009,0.943834 -2.189658,0.754202 -3.090701,0.883133 -5.706948,0.816579 -1.968993,-0.05003 -3.857389,0.112944 -5.156417,0.445168 -2.540511,0.649717 -3.121844,0.475445 -6.293177,-1.886531 -1.328867,-0.989733 -2.813693,-1.985447 -3.299628,-2.212701 -0.485924,-0.227253 -1.282539,-1.206979 -1.770266,-2.177149 -0.994106,-1.977509 -2.989899,-4.152306 -3.810531,-4.152306 -0.670395,0 -2.021928,-2.694429 -2.021928,-4.030949 0,-0.544338 -0.181788,-1.288534 -0.403977,-1.653756 -0.302923,-0.497932 -0.270067,-0.845227 0.131398,-1.388344 1.31241,-1.775611 1.800147,-7.4242 0.77639,-8.991473 -0.646183,-0.989235 -0.259588,-1.848081 3.390839,-7.532711 1.370675,-2.134484 3.929477,-4.937772 4.507128,-4.937772 1.307362,0 4.0447,-2.827336 4.0447,-4.177663 0,-1.208466 1.768951,-3.614604 3.583081,-4.873734 1.037206,-0.719893 2.199516,-1.740086 2.582904,-2.2670989 0.69503,-0.955373 1.659429,-1.22691 2.339109,-0.658599 0.19707,0.164776 0.69776,0.371422 1.112644,0.459209 0.697616,0.14762 0.692191,0.162515 -0.07207,0.198111 -0.454494,0.02118 -0.931256,-0.110831 -1.059465,-0.293313 -0.473911,-0.674562 -1.336427,-0.295835 -2.261162,0.9928559 -0.522804,0.728562 -1.634299,1.704372 -2.469982,2.168469 -1.893455,1.051524 -2.871117,2.434634 -3.197745,4.523918 -0.282278,1.805494 -1.537576,3.171077 -3.901142,4.243849 -1.534712,0.696584 -3.944707,3.083342 -4.379417,4.337208 -0.156664,0.451835 -0.665369,1.26946 -1.13046,1.81693 -1.191067,1.402029 -2.838483,4.342005 -2.838483,5.065555 0,0.334551 0.176216,0.763288 0.391588,0.95276 0.724537,0.637386 0.802131,4.640767 0.129418,6.676498 -0.344686,1.043079 -0.805621,2.148537 -1.024298,2.456574 -0.283471,0.399326 -0.267801,0.810643 0.0546,1.433171 0.248715,0.480202 0.347837,1.23891 0.220268,1.686015 -0.292246,1.024346 0.358015,1.909735 3.043479,4.144078 1.459981,1.214701 2.212535,2.142583 2.500339,3.082872 0.427506,1.396687 0.614066,1.571581 5.18514,4.860911 3.020169,2.173312 3.745568,2.340823 6.471923,1.494607 1.856256,-0.576148 4.046701,-0.641592 5.475828,-0.163588 0.826521,0.276443 1.528259,0.132329 4.065487,-0.834948 3.427463,-1.306658 6.495056,-1.776488 7.747866,-1.186645 0.446781,0.210352 1.167328,0.994595 1.6012,1.742778 l 0.788856,1.360325 2.170595,-0.199592 c 2.043492,-0.187892 2.232419,-0.142812 3.22648,0.769974 1.008264,0.925823 1.044314,1.068936 0.79928,3.173024 -0.141139,1.211908 -0.494379,2.810558 -0.784969,3.552551 -0.480519,1.226976 -0.461952,1.46356 0.205062,2.613778 0.40338,0.695578 1.209931,1.754092 1.792346,2.352267 2.492538,2.559969 4.017735,5.600931 4.622651,9.216743 0.862294,5.154051 0.862471,5.217001 0.01824,6.161071 -1.089966,1.21899 -2.310065,4.977971 -2.310065,7.11697 0,1.45639 0.357174,2.4055 2.074413,5.512268 1.330825,2.40768 2.074404,4.17769 2.074404,4.93789 0,2.38253 1.163094,6.28245 2.4231,8.12484 2.151532,3.146 3.356678,5.84933 3.103697,6.96208 -0.305319,1.34299 0.257667,2.52368 1.469785,3.08237 0.848381,0.39105 1.285899,0.39122 2.940422,9.4e-4 1.069059,-0.25203 2.792354,-0.45669 3.829561,-0.45478 3.278268,0.006 5.742855,-0.90355 8.423644,-3.10873 1.323098,-1.08835 2.979554,-2.7681 3.681019,-3.73277 0.701453,-0.96449 1.415769,-1.75376 1.587357,-1.75376 0.55651,0 1.583048,-2.31166 1.588998,-3.57814 0.0078,-1.55792 0.212602,-1.8185 2.093859,-2.65729 0.843639,-0.37616 1.740909,-0.90334 1.993909,-1.17152 0.61166,-0.64836 0.62758,-3.72212 0.0284,-5.4815 l -0.48027,-1.41016 2.23371,-2.001208 c 1.22855,-1.10066 2.91261,-2.30555 3.74236,-2.67752 3.5259,-1.580628 4.10239,-2.637465 3.99843,-7.329662 -0.065,-2.940644 -0.21852,-3.786182 -0.86053,-4.743438 -0.50321,-0.750291 -0.76911,-1.698902 -0.74705,-2.665196 0.0189,-0.825157 -0.22544,-2.071207 -0.54282,-2.768994 -0.56445,-1.241047 -0.54787,-1.32277 0.75976,-3.746972 0.73529,-1.363044 1.61279,-2.679737 1.95007,-2.92598 0.33727,-0.246235 1.25298,-1.276524 2.03497,-2.289525 0.78194,-1.012994 3.23537,-3.319259 5.452,-5.125026 3.90214,-3.178863 4.51543,-4.50959 6.1265,-7.130234 1.47259,-2.395392 3.12783,-6.296855 3.13448,-7.690374 0.006,-1.088601 -0.3033,-1.355763 -1.12098,-0.97079 -0.56302,0.265083 -5.90024,1.35756 -6.41825,1.313751 -0.76108,-0.06432 4.93733,-1.65638 6.16848,-1.723365 l 1.56343,-0.08503 -0.0317,2.001926 c -0.0268,1.696401 -1.12733,4.331546 -2.23828,6.304249 -1.64035,2.912636 -2.23455,4.326581 -6.41572,7.952147 -2.31502,2.007399 -4.69229,4.247066 -5.2828,4.97703 -0.59051,0.729973 -1.52979,1.775152 -2.08725,2.322622 -0.55746,0.547471 -1.48721,1.939419 -2.06608,3.0932 -0.98463,1.962414 -1.02703,2.230074 -0.65728,4.147539 0.21738,1.127352 0.4107,2.554344 0.4296,3.171095 0.0189,0.616742 0.26802,1.437957 0.55366,1.824917 0.31813,0.430917 0.6219,2.230703 0.78396,4.644585 0.25849,3.850403 0.24254,3.970293 -0.69259,5.213428 -0.52642,0.699829 -1.85642,1.778457 -2.9555,2.396987 -1.09908,0.61851 -2.85056,1.91047 -3.89216,2.87104 l -1.89378,1.746488 0.35704,1.73289 c 0.72027,3.49593 0.0715,4.97418 -3.112389,7.0915 -0.74279,0.49399 -1.16054,1.06513 -1.16054,1.58672 0,1.10953 -0.987411,3.10514 -2.034412,4.11164 -0.474582,0.45622 -1.2225,1.35997 -1.662029,2.00832 -0.439529,0.64835 -1.866765,2.07991 -3.171646,3.18124 -2.67176,2.25501 -5.571601,3.42954 -8.515604,3.44912 -0.977562,0.007 -2.795736,0.22813 -4.040391,0.49253 -2.654574,0.56388 -2.370958,0.57311 -3.6781,-0.11991 z m 0.302625,-0.29404 c -1.21212,-0.55869 -1.775107,-1.73938 -1.469787,-3.08237 0.25298,-1.11275 -0.952177,-3.81608 -3.103707,-6.96208 -1.260006,-1.84239 -2.423091,-5.74231 -2.423091,-8.12484 0,-0.7602 -0.743578,-2.53021 -2.074403,-4.93789 -1.717239,-3.106768 -2.074413,-4.055878 -2.074413,-5.512268 0,-2.138999 1.220099,-5.89798 2.310054,-7.11697 0.677713,-0.757937 0.759981,-1.154197 0.542872,-2.614736 -1.058026,-7.117687 -2.039148,-9.533292 -5.183868,-12.763078 -0.582405,-0.598175 -1.388954,-1.656689 -1.792335,-2.352267 -0.667015,-1.150218 -0.685581,-1.386802 -0.20506,-2.613778 0.290587,-0.741993 0.643828,-2.340643 0.784966,-3.552551 0.245034,-2.104088 0.208985,-2.247201 -0.799278,-3.173024 -0.994062,-0.912786 -1.182987,-0.957866 -3.22648,-0.769974 l -2.170595,0.199592 -0.788858,-1.360325 c -0.433872,-0.748183 -1.154419,-1.532426 -1.601198,-1.742778 -1.252812,-0.589843 -4.320403,-0.120018 -7.747865,1.186645 -2.537231,0.967272 -3.238968,1.111391 -4.06549,0.834948 -1.429127,-0.478004 -3.619569,-0.41256 -5.475828,0.163588 -2.726353,0.846216 -3.451753,0.678705 -6.471923,-1.494607 -4.571074,-3.28933 -4.757634,-3.464224 -5.18514,-4.860911 -0.287803,-0.940289 -1.040356,-1.868171 -2.500339,-3.082872 -2.685464,-2.234343 -3.335724,-3.119732 -3.043477,-4.144078 0.127559,-0.447105 0.02841,-1.205813 -0.220268,-1.686015 -0.322429,-0.622528 -0.338099,-1.033845 -0.0546,-1.433171 0.218676,-0.308037 0.679614,-1.413495 1.024299,-2.456574 0.672717,-2.035731 0.595125,-6.039112 -0.129418,-6.676498 -0.215373,-0.189472 -0.391589,-0.618209 -0.391589,-0.95276 0,-0.72355 1.647416,-3.663526 2.838483,-5.065555 0.465091,-0.54747 0.973794,-1.365095 1.130459,-1.81693 0.434713,-1.253866 2.844705,-3.640624 4.379417,-4.337208 2.363568,-1.072772 3.618864,-2.438355 3.901143,-4.243849 0.326627,-2.089284 1.304289,-3.472394 3.197744,-4.523918 0.835683,-0.464097 1.947179,-1.439907 2.469982,-2.168469 0.924735,-1.2886909 1.787251,-1.6674179 2.261163,-0.9928559 0.128207,0.182491 1.304918,0.331802 2.61491,0.331802 1.829988,0 2.767057,-0.189414 4.044557,-0.817549 1.907237,-0.937762 6.040937,-1.859549 8.355865,-1.8633 2.429785,-0.0039 5.260997,-0.198696 6.572712,-0.452146 1.413799,-0.273172 2.811828,0.286356 2.698893,1.080166 -0.04388,0.307847 0.05227,0.976337 0.213613,1.485544 0.211603,0.668091 0.123294,1.0910259 -0.317222,1.5192409 -0.335746,0.326373 -0.603269,0.730962 -0.594472,0.899083 0.02752,0.528992 2.729835,1.856871 4.120425,2.024801 2.059638,0.248728 3.315555,0.763204 3.953282,1.619428 0.338598,0.45461 1.251131,0.941163 2.176111,1.160281 0.876154,0.20755 1.932711,0.586691 2.347928,0.842537 0.415228,0.255837 1.050657,0.465174 1.412073,0.465174 0.750321,0 1.589761,-1.164335 1.306933,-1.812754 -0.267394,-0.613 0.78605,-1.82027 1.918994,-2.199196 0.742939,-0.248497 1.296665,-0.164709 2.471452,0.373988 1.706299,0.7824 3.436656,1.303845 7.179309,2.163521 2.454916,0.563883 2.660745,0.564485 4.404202,0.01295 2.412107,-0.763061 3.199322,-0.401263 3.714098,1.706906 0.212092,0.868724 1.583516,3.669847 3.047585,6.224727 1.46404,2.554879 2.66272,4.805852 2.66373,5.002153 0,0.196299 0.42123,0.703525 0.9338,1.127154 1.00185,0.827988 1.50311,1.95835 1.9167,4.32247 0.17755,1.014892 0.66691,1.889709 1.52787,2.731363 0.69667,0.681038 1.45368,1.89162 1.68225,2.690168 0.32853,1.14781 0.80336,1.712051 2.26696,2.693968 2.58514,1.734342 4.8857,4.219724 4.64752,5.020926 -0.1264,0.425172 0.19634,0.966689 0.95934,1.609776 l 1.14981,0.969079 3.86807,-0.756892 c 2.12745,-0.416284 4.49403,-0.950362 5.2591,-1.186823 1.58982,-0.491378 1.81648,-0.391229 1.81082,0.8001 -0.007,1.393516 -0.90707,3.602662 -3.13448,7.690373 -2.02961,3.724727 -2.22436,3.951369 -6.12649,7.130225 -2.21667,1.805774 -4.67008,4.112042 -5.45202,5.125034 -0.78197,1.012993 -1.6977,2.043282 -2.03496,2.289525 -0.33727,0.246243 -1.21481,1.562928 -1.95007,2.925971 -1.30764,2.424211 -1.32421,2.505925 -0.75976,3.746971 0.31739,0.697798 0.56164,1.943846 0.54281,2.769003 -0.022,0.966295 0.24383,1.914908 0.74703,2.665188 0.64201,0.957255 0.79543,1.802794 0.86056,4.743438 0.10392,4.692205 -0.47255,5.749036 -3.99843,7.329665 -0.82977,0.37198 -2.51384,1.57687 -3.74237,2.67753 l -2.23369,2.001208 0.48024,1.41015 c 0.59921,1.75939 0.58329,4.83313 -0.0284,5.4815 -0.25298,0.26818 -1.15024,0.79536 -1.993869,1.17152 -1.881264,0.83881 -2.086576,1.09938 -2.093877,2.6573 -0.0066,1.26648 -1.032487,3.57815 -1.588997,3.57815 -0.171588,0 -0.885893,0.78927 -1.587347,1.75392 -0.701464,0.96467 -2.35792,2.64441 -3.681021,3.73278 -2.68079,2.20518 -5.145378,3.11472 -8.423643,3.10872 -1.037208,-0.001 -2.760515,0.20275 -3.829573,0.45477 -1.654511,0.39008 -2.09203,0.38991 -2.940411,-9.3e-4 z m 40.5689,-15.31586 c -0.49054,-0.43155 -0.7941,-1.34716 -0.97658,-2.94589 -0.2463,-2.15744 -0.19322,-2.41947 0.75853,-3.74585 0.919,-1.2807 0.99926,-1.628958 0.78702,-3.415338 -0.34152,-2.87451 0.21049,-3.95689 2.49874,-4.899756 1.83028,-0.754155 2.81127,-1.590523 4.97687,-4.243229 0.61024,-0.747515 1.22615,-1.359121 1.36861,-1.359121 0.39631,0 1.04431,1.652373 1.30865,3.337036 0.18218,1.161014 0.0985,1.613452 -0.3604,1.948494 -0.3287,0.240006 -0.59766,0.717767 -0.59766,1.061689 0,0.617687 -2.94233,8.643985 -4.50489,12.288905 -0.65339,1.52402 -1.02808,1.94819 -1.97852,2.23966 -1.67201,0.51275 -2.46799,0.44807 -3.28037,-0.2666 z" />
  </g>
</svg>
