<?xml version="1.0" encoding="UTF-8" standalone="no"?>
<!-- Created with Inkscape (http://www.inkscape.org/) -->

<svg
   width="544"
   height="480"
   viewBox="0 0 143.93334 127"
   version="1.1"
   id="svg5"
   inkscape:version="1.1.2 (b8e25be833, 2022-02-05)"
   sodipodi:docname="Asia.svg"
   xmlns:inkscape="http://www.inkscape.org/namespaces/inkscape"
   xmlns:sodipodi="http://sodipodi.sourceforge.net/DTD/sodipodi-0.dtd"
   xmlns="http://www.w3.org/2000/svg"
   xmlns:svg="http://www.w3.org/2000/svg">
  <sodipodi:namedview
     id="namedview7"
     pagecolor="#ffffff"
     bordercolor="#666666"
     borderopacity="1.0"
     inkscape:pageshadow="2"
     inkscape:pageopacity="0.0"
     inkscape:pagecheckerboard="0"
     inkscape:document-units="mm"
     showgrid="false"
     units="px"
     inkscape:zoom="0.38796647"
     inkscape:cx="220.37987"
     inkscape:cy="646.96313"
     inkscape:window-width="1920"
     inkscape:window-height="1057"
     inkscape:window-x="-8"
     inkscape:window-y="-8"
     inkscape:window-maximized="1"
     inkscape:current-layer="layer1" />
  <defs
     id="defs2" />
  <g
     inkscape:label="Layer 1"
     inkscape:groupmode="layer"
     id="layer1">
    <path
       id="path18604"
       style="fill:#008080;stroke-width:0.26694;fill-opacity:1"
       d="m 115.93516,124.39213 c 0,-0.22851 0.29671,-0.69351 0.65933,-1.03333 0.83841,-0.78565 0.66659,-0.94653 -0.73409,-0.6874 -2.9928,0.55368 -13.32677,0.067 -14.52885,-0.68415 -0.1547,-0.0967 -0.99191,-0.27737 -1.860384,-0.4015 -1.94942,-0.27862 -3.976847,-1.25401 -3.976847,-1.91323 0,-0.28166 -0.38331,-0.66059 -0.936923,-0.92622 -1.234453,-0.59232 -3.406584,-3.09817 -4.277172,-4.93435 -0.382463,-0.80661 -1.097893,-2.05828 -1.589884,-2.78147 -0.492016,-0.7232 -0.894531,-1.43028 -0.894531,-1.57128 0,-0.2665 -0.925116,-1.48057 -2.853748,-3.74509 -1.40043,-1.64429 -1.46987,-2.38418 -0.199098,-2.12057 0.145994,0.0303 0.726545,0.0981 1.2901,0.15073 0.563554,0.0526 1.101112,0.1796 1.194594,0.2822 0.09348,0.10259 -0.516945,0.11819 -1.356482,0.0347 -1.004588,-0.1 -1.526411,-0.0533 -1.526411,0.13662 0,0.15867 0.438336,0.82937 0.974074,1.49046 1.652525,2.03916 3.00791,3.92688 3.00791,4.18925 0,0.13767 0.30589,0.65584 0.679765,1.15149 0.373891,0.49566 0.95669,1.53378 1.295103,2.30696 0.807604,1.8451 3.893938,5.23426 4.870245,5.34808 0.550385,0.0641 0.707448,0.21676 0.664822,0.64573 -0.07056,0.70987 1.724923,1.67147 3.717743,1.99109 0.760054,0.12191 2.505164,0.41898 3.877994,0.66017 1.37285,0.24119 2.80637,0.39993 3.18559,0.35275 0.6451,-0.0802 0.61259,-0.1287 -0.50507,-0.75204 -0.65704,-0.36645 -1.1946,-0.84596 -1.1946,-1.06559 0,-0.27078 -0.42729,-0.47045 -1.32733,-0.62029 -1.51842,-0.25278 -1.57585,-0.25356 -2.66558,-0.0363 -0.58252,0.11611 -1.166534,-0.0322 -2.096924,-0.53237 -0.70924,-0.38131 -1.51068,-0.6933 -1.78094,-0.6933 -0.36785,0 -0.482314,-0.18558 -0.45524,-0.73818 0.031,-0.6329 0.0526,-0.65204 0.15117,-0.1342 0.0633,0.33218 0.29965,0.60395 0.52524,0.60395 0.22559,0 0.98688,0.31739 1.69177,0.70532 0.94586,0.52053 1.476854,0.65664 2.026924,0.51955 0.90717,-0.22611 1.15979,-0.22553 2.95556,0.007 1.16545,0.15068 1.45664,0.29663 1.65746,0.83073 0.45379,1.20684 1.51613,1.39814 7.23049,1.30207 3.18242,-0.0535 5.29259,0.0138 5.38916,0.17178 0.0896,0.14654 0.6096,0.18268 1.19336,0.0829 1.5466,-0.2642 1.34846,0.4454 -0.40355,1.44516 -0.79097,0.45139 -1.5148,0.94608 -1.60845,1.09933 -0.27394,0.44819 -1.4663,0.33692 -1.4663,-0.13682 z m -0.96588,-6.16095 c -0.084,-0.22146 -0.31214,-0.40264 -0.50692,-0.40264 -0.19478,0 -0.42711,-0.11941 -0.5163,-0.26535 -0.2501,-0.40915 0.74672,0.0123 1.11359,0.47074 0.77775,0.97205 1.68472,-0.75791 0.95194,-1.81576 -0.20843,-0.30086 -0.32471,-0.75615 -0.25845,-1.01177 0.0891,-0.34365 0.12846,-0.30739 0.15124,0.13921 0.0169,0.33218 0.13631,0.60396 0.26529,0.60396 0.37365,0 0.48962,0.86484 0.24298,1.81186 -0.24418,0.93753 -1.15349,1.23348 -1.44337,0.46975 z m -14.69887,-5.37129 c -0.606714,-0.73919 -0.823694,-2.76133 -0.405034,-3.77453 0.311154,-0.75299 0.515274,-0.91446 1.123804,-0.88898 0.55745,0.0234 0.61068,0.0641 0.21264,0.1631 -0.29201,0.0726 -0.68025,0.25454 -0.86277,0.40436 -0.483484,0.39691 -0.425614,3.17293 0.0814,3.90489 0.46648,0.67341 0.35857,0.81086 -0.15007,0.19116 z m 1.8784,-5.00332 c 0.17718,-0.40835 0.75303,-0.91395 1.352,-1.18705 0.57383,-0.26165 1.22745,-0.79089 1.45249,-1.17607 0.225,-0.38519 0.75075,-0.89857 1.16823,-1.14086 0.41754,-0.24229 1.1949,-1.05385 1.72749,-1.80345 0.53261,-0.74962 1.02989,-1.36294 1.10506,-1.36294 0.0751,0 0.76117,0.63416 1.52444,1.40924 1.36352,1.38459 1.38169,1.42411 1.04054,2.26105 -0.19098,0.46851 -0.49992,0.94466 -0.68658,1.05812 -0.26034,0.15825 -0.27062,0.11615 -0.0442,-0.18077 0.78996,-1.0357 0.65981,-1.74 -0.55938,-3.02658 l -1.18235,-1.24775 -1.09283,1.46356 c -0.60104,0.80496 -1.31776,1.53576 -1.59267,1.62398 -0.27492,0.0882 -0.75129,0.51748 -1.05862,0.95387 -0.3073,0.4364 -0.93757,0.98315 -1.40058,1.215 -0.46302,0.23185 -1.11631,0.74339 -1.45177,1.13675 l -0.60996,0.71521 z m 15.58117,-4.48162 c -0.39989,-0.2439 -0.83959,-0.76972 -0.97709,-1.1685 -0.22964,-0.66618 -0.31915,-0.70497 -1.10257,-0.47778 -0.46892,0.13599 -0.95507,0.18323 -1.08029,0.10497 -0.47702,-0.2981 -0.14989,-1.989563 0.38476,-1.989563 0.19412,0 0.18473,0.106613 -0.0284,0.322113 -0.17521,0.17716 -0.31857,0.55015 -0.31857,0.82887 0,0.44232 0.13471,0.48374 1.05971,0.32573 0.98314,-0.16796 1.07977,-0.12763 1.33776,0.55848 0.47574,1.26529 1.84998,1.97114 1.84998,0.95021 0,-0.27725 0.26878,-0.68518 0.5973,-0.9065 l 0.5973,-0.40238 -0.47108,-1.830983 c -0.25906,-1.007036 -0.65901,-2.040992 -0.88876,-2.297677 -0.22975,-0.256687 -0.33777,-0.597466 -0.2401,-0.75729 0.31393,-0.5136 -0.37901,-2.067333 -1.06241,-2.382182 -0.59417,-0.273745 -0.78152,-0.600561 -0.68468,-1.19445 0.0189,-0.11532 -0.47472,-0.432938 -1.09678,-0.705823 -0.62202,-0.272878 -1.39832,-0.788729 -1.72508,-1.146323 -0.52433,-0.573802 -0.55779,-0.747558 -0.2847,-1.479107 0.45088,-1.207766 -0.19577,-2.869043 -1.16138,-2.983611 -0.65472,-0.07768 -0.70302,-0.0015 -0.85506,1.342124 -0.24138,2.134277 -0.20789,2.918729 0.1429,3.346135 0.17455,0.212647 0.33817,0.712801 0.36365,1.111453 0.0255,0.398644 0.13035,1.026788 0.23309,1.395873 l 0.18676,0.671065 -0.39986,-0.671065 c -0.21993,-0.369085 -0.40411,-0.928086 -0.40929,-1.242234 -0.005,-0.314148 -0.18534,-0.996992 -0.4004,-1.51744 -0.29778,-0.720592 -0.34008,-1.374142 -0.1774,-2.740369 0.22952,-1.927947 0.48906,-2.276464 1.54345,-2.072661 0.24516,0.0474 0.47619,0.221137 0.6782,0.471264 0.69967,0.86631 1.05134,2.648813 0.43635,3.270641 -0.37845,0.382666 0.86456,1.618653 1.87171,1.861102 0.97171,0.233927 1.34802,0.600577 1.34802,1.313415 0,0.39338 0.20295,0.685249 0.55516,0.798271 0.62613,0.200943 1.41688,1.855305 1.18226,2.47348 -0.0847,0.222979 0.0246,0.541053 0.24291,0.706835 0.21822,0.165783 0.60756,1.121055 0.86516,2.122819 l 0.46839,1.821388 -0.70601,1.25815 c -0.38832,0.69198 -0.80543,1.27993 -0.92693,1.30657 -0.1215,0.0266 -0.54807,-0.15112 -0.948,-0.39502 z m -8.69692,-3.633355 c 0,-0.228616 0.33668,-0.812438 0.74822,-1.297383 0.41151,-0.484945 0.90385,-1.27429 1.09405,-1.754099 0.39386,-0.993393 0.92605,-1.123854 1.34627,-0.329982 0.35097,0.663114 0.28863,0.769494 -1.37829,2.352789 -1.52362,1.44721 -1.81025,1.61008 -1.81025,1.028675 z M 47.445036,11.934807 c -0.803023,-0.200304 -1.896497,-0.43646 -2.429926,-0.524791 -1.102567,-0.182577 -1.414914,-0.671698 -0.890782,-1.394925 0.465429,-0.6422379 2.974712,-0.637108 3.885515,0.008 0.338343,0.239642 1.006721,0.43571 1.485264,0.43571 1.108199,0 2.123942,0.918939 1.651723,1.494293 -0.38751,0.4721 -1.76319,0.465325 -3.701794,-0.01823 z M 106.04461,115.76543 c -0.29772,-0.30104 -0.82303,-0.45224 -1.47913,-0.4258 -0.55959,0.0226 -1.48562,-0.12087 -2.05783,-0.31874 -0.83401,-0.28842 -1.05804,-0.50891 -1.12953,-1.11173 -0.0491,-0.41359 -0.30791,-1.03317 -0.57525,-1.37687 -0.6395,-0.82201 -0.920524,-2.55584 -0.53296,-3.28808 0.22881,-0.43226 0.50687,-0.55179 1.1396,-0.48984 0.68937,0.0675 0.89943,-0.0479 1.19114,-0.65458 0.19476,-0.40509 0.64887,-0.81133 1.0091,-0.90276 0.36024,-0.0914 1.04098,-0.61773 1.51271,-1.16957 0.47176,-0.55183 1.126,-1.14608 1.45384,-1.32054 0.32786,-0.17446 1.0031,-0.92826 1.50049,-1.67511 l 0.90443,-1.35792 0.60478,0.82716 c 0.33265,0.45494 0.82216,0.89692 1.0878,0.98217 0.61733,0.19812 0.60353,0.61878 -0.0479,1.46095 -0.66818,0.86374 -0.67094,2.29304 -0.007,3.60985 l 0.52394,1.03912 -0.65669,0.61536 c -0.36116,0.33846 -0.65664,0.9044 -0.65664,1.25764 0,0.35326 -0.22903,0.85186 -0.50897,1.10801 -0.29857,0.27321 -0.58315,1.01148 -0.68852,1.78606 -0.19844,1.45896 -0.19462,1.45406 -1.32688,1.69914 -0.57531,0.12453 -0.928,0.0423 -1.26049,-0.29392 z m -13.47168,-7.38351 c -1.364984,-1.09893 -2.644668,-3.18395 -2.650807,-4.31906 -0.0047,-0.80521 -1.256993,-3.03501 -1.970564,-3.50776 -0.6308,-0.41793 -0.673629,-0.586791 -0.67454,-2.658918 0,-1.216964 -0.0062,-2.57232 -0.0126,-3.011908 -0.0062,-0.439581 -0.311771,-1.587098 -0.678708,-2.550033 -1.441781,-3.783374 -1.672071,-4.039328 -2.65061,-2.945993 -0.306397,0.342339 -0.747338,0.519459 -1.16937,0.469742 -0.600502,-0.07076 -0.695275,-0.232344 -0.833881,-1.421933 -0.1859,-1.595628 -0.416043,-2.188756 -0.926019,-2.38664 -0.207733,-0.0806 -0.377686,-0.283576 -0.377686,-0.451062 0,-0.167479 -0.537575,-0.909079 -1.194596,-1.648001 -0.657028,-0.738914 -1.194594,-1.496819 -1.194594,-1.684226 0,-0.187399 -0.18142,-0.492988 -0.403178,-0.679078 -0.328393,-0.275571 -0.490498,-0.25842 -0.873917,0.09245 -0.258939,0.236927 -1.1825,0.511645 -2.052403,0.610476 -1.749796,0.198814 -2.245272,0.464736 -2.245272,1.205065 0,0.272771 -0.364175,0.768193 -0.809301,1.100953 -0.445112,0.332751 -1.531212,1.453692 -2.413561,2.490965 -0.88235,1.037273 -2.034,2.219116 -2.559221,2.62632 l -0.954986,0.740376 -0.03889,3.08127 c -0.04263,3.381738 -0.351924,4.366776 -1.827627,5.821793 -0.722851,0.712712 -0.803265,0.733272 -1.254187,0.32063 -0.265006,-0.242488 -0.555488,-0.696745 -0.645517,-1.009448 -0.09007,-0.31271 -0.700215,-1.776468 -1.35589,-3.252804 -0.655692,-1.47633 -1.593882,-3.590177 -2.084886,-4.697428 -0.917354,-2.068704 -1.983883,-5.872217 -1.983883,-7.075022 0,-0.895421 -0.395656,-1.103973 -1.120466,-0.590625 -0.807389,0.571815 -1.095473,0.530941 -2.063628,-0.29279 -0.633771,-0.539241 -0.798886,-0.859019 -0.683508,-1.323869 0.114626,-0.461737 0.01673,-0.656327 -0.396759,-0.789041 -0.301924,-0.09689 -1.19006,-0.834893 -1.973692,-1.640011 l -1.424754,-1.463851 -4.616634,-0.0611 c -4.950676,-0.06551 -5.776622,-0.27249 -6.177015,-1.54805 -0.153999,-0.49062 -0.298703,-0.542064 -1.015627,-0.361049 -1.684829,0.425405 -2.640531,0.239603 -4.154357,-0.80766 -0.803023,-0.555532 -1.799779,-1.537299 -2.215021,-2.181696 -0.415217,-0.644395 -0.978134,-1.24326 -1.25092,-1.3308 -0.533147,-0.171102 -1.577905,0.271066 -1.577905,0.667808 0,0.68232 0.682699,1.861179 1.739334,3.003394 0.649445,0.702033 1.180804,1.400971 1.180804,1.553186 0,0.152216 0.268779,0.247989 0.597297,0.21282 0.512038,-0.05479 0.616231,0.0893 0.730015,1.009752 0.132064,1.068159 0.139228,1.074124 1.389627,1.155341 1.185315,0.07701 1.323796,0.0121 2.431878,-1.1408 0.646241,-0.672351 1.235892,-1.222451 1.310316,-1.222451 0.07444,0 0.217434,0.392573 0.317801,0.872382 0.229583,1.097566 1.039755,2.004933 1.975777,2.2128 0.734417,0.163112 1.865898,1.428606 1.865898,2.086926 0,0.199209 -0.175384,0.596674 -0.389752,0.883248 -0.214376,0.286573 -0.393562,0.703372 -0.398206,0.926221 -0.0047,0.222841 -0.247349,0.556042 -0.539378,0.740444 -0.291998,0.184393 -0.530022,0.545625 -0.528925,0.802736 0.0031,0.734858 -2.892297,3.231501 -4.29465,3.703153 -0.703412,0.236568 -1.424115,0.701394 -1.66578,1.074343 -0.390038,0.601916 -4.83349,2.975081 -6.518445,3.481384 -0.365007,0.109678 -0.899291,0.364337 -1.18729,0.565904 -0.287993,0.201559 -0.922223,0.366482 -1.409369,0.366482 -0.633585,0 -0.831291,0.09552 -0.69453,0.335529 0.105164,0.184537 -0.126688,0.04269 -0.515248,-0.315214 -0.808805,-0.744993 -0.86845,-0.87159 -0.308287,-0.654234 0.269144,0.104428 0.398198,-0.01332 0.398198,-0.363249 0,-0.889569 -0.804261,-2.953197 -1.343126,-3.446307 -0.547422,-0.500922 -0.692282,-1.193445 -0.249667,-1.193445 0.146018,0 0.265481,-0.108641 0.265481,-0.241445 0,-0.35554 -1.737281,-2.949736 -2.804315,-4.187556 -0.50905,-0.590534 -1.055422,-1.556862 -1.21415,-2.147395 -0.503761,-1.874198 -0.786083,-2.481295 -1.444932,-3.107164 -0.353263,-0.335582 -0.64232,-0.741371 -0.64232,-0.901759 0,-0.16038 -0.540078,-1.105654 -1.200188,-2.100599 -1.210491,-1.824525 -1.971441,-2.252594 -2.698158,-1.517789 -0.341889,0.345711 -1.535925,-2.009764 -1.788051,-3.527364 -0.156348,-0.941089 -0.142775,-0.958107 0.964258,-1.207908 1.118832,-0.252468 1.125016,-0.260573 1.726413,-2.266558 0.596894,-1.991054 0.757863,-3.583703 0.445407,-4.407049 -0.200998,-0.529597 -1.139291,-0.546127 -2.109521,-0.03717 -0.647968,0.339924 -0.855133,0.336934 -1.6894967,-0.02437 -0.523036,-0.22649 -1.104738,-0.475877 -1.292691,-0.554192 -0.187951,-0.07831 -0.582867,0.07828 -0.877612,0.34799 C 7.1597833,63.093094 6.9733243,63.122756 6.552,62.856695 6.2701295,62.678706 5.7604647,62.533078 5.4193996,62.533078 c -0.6920635,0 -2.0417469,-1.801985 -2.0417469,-2.72598 0,-0.291723 -0.1317916,-0.779412 -0.2928694,-1.083748 -0.3532696,-0.667444 -0.055072,-0.915284 1.4003839,-1.163926 0.542109,-0.09261 1.126611,-0.340123 1.2989054,-0.550032 0.1722788,-0.209911 0.7138432,-0.381655 1.2034547,-0.381655 0.48962,0 1.281342,-0.241131 1.759395,-0.535845 1.122215,-0.691852 2.8560947,-0.692174 4.6549037,-8.37e-4 1.574491,0.605105 4.543414,0.731165 5.05427,0.214606 0.626023,-0.633003 0.36363,-1.54808 -0.61056,-2.129278 -1.396518,-0.833145 -1.117029,-1.112908 0.464557,-0.465031 0.766535,0.314 1.871529,0.629593 2.455556,0.701315 0.617475,0.07583 1.561789,0.496786 2.256458,1.005896 0.657036,0.48152 1.971087,1.266871 2.920114,1.745224 0.949042,0.478353 1.7641,0.904487 1.811246,0.946963 0.04721,0.04247 -0.03757,0.528561 -0.188147,1.080193 -0.362044,1.325762 -0.114926,1.712782 1.678358,2.628671 1.273919,0.650633 1.638803,0.72713 2.480758,0.520069 0.947301,-0.232961 0.984513,-0.285259 0.921608,-1.294802 -0.04122,-0.661267 -0.361678,-1.468968 -0.86277,-2.174499 -0.944392,-1.329713 -1.055842,-2.093371 -0.26864,-1.840738 0.783772,0.251533 1.121632,-0.06028 0.775006,-0.715192 -0.226689,-0.428296 -0.460551,-0.514803 -1.062571,-0.393057 -0.594971,0.120319 -0.771933,0.05764 -0.771933,-0.273411 0,-0.236232 -0.597298,-0.977398 -1.327328,-1.647034 -0.730023,-0.669637 -1.32732,-1.420943 -1.32732,-1.669569 0,-0.612065 0.840836,-1.340525 1.54732,-1.340525 0.424483,0 0.576397,-0.16272 0.576397,-0.617378 0,-0.728209 -0.458467,-1.261593 -1.084412,-1.261593 -0.485124,0 -1.105975,-0.812509 -1.435769,-1.878973 -0.114121,-0.369082 -0.429989,-0.959131 -0.701919,-1.311215 -0.271937,-0.35215 -0.494403,-0.915601 -0.494403,-1.25218 0,-0.567419 0.149263,-0.626102 2.050855,-0.806282 1.965214,-0.186209 4.536065,0.103887 6.17857,0.697197 0.835236,0.301706 2.388476,-0.02489 2.731197,-0.574285 0.201014,-0.322217 -0.0231,-0.71119 -0.988168,-1.715265 -0.936076,-0.973893 -1.212229,-1.443141 -1.104582,-1.876888 0.17119,-0.689604 -0.493827,-1.750729 -1.097153,-1.750729 -0.235761,0 -0.654082,0.206306 -0.929636,0.458459 -0.565585,0.517551 -1.090744,0.315063 -1.73756,-0.669946 -0.355346,-0.541149 -0.333613,-0.603826 0.293033,-0.84473 1.170108,-0.449828 1.354499,-1.196357 0.617973,-2.502076 -0.419987,-0.744513 -0.694607,-1.752131 -0.792741,-2.908629 -0.08665,-1.021227 -0.492809,-2.641681 -0.960453,-3.832037 -0.445664,-1.134398 -0.81029,-2.114143 -0.81029,-2.17721 0,-0.06306 0.507705,-0.342792 1.128228,-0.621616 0.620518,-0.278826 1.524966,-0.846002 2.009848,-1.260387 0.704237,-0.601822 0.848506,-0.886964 0.71694,-1.417004 -0.149683,-0.603003 -0.10293,-0.647895 0.512059,-0.491819 0.936349,0.237629 0.877551,-0.345326 -0.07133,-0.707488 -0.411484,-0.157046 -0.952831,-0.646175 -1.20302,-1.086957 -0.391624,-0.689985 -0.403301,-0.861651 -0.08392,-1.234591 0.204014,-0.238242 0.449007,-0.765347 0.544394,-1.171338 0.09541,-0.405992 0.335785,-0.738167 0.534168,-0.738167 0.838183,0 2.31762,0.860207 2.552159,1.483918 0.137189,0.364911 0.370281,0.663479 0.517925,0.663479 0.14766,0 0.433349,0.39257 0.634853,0.872379 0.20151,0.479808 0.743035,1.266342 1.203399,1.747854 0.820325,0.858017 0.828569,0.891969 0.413998,1.702598 -0.232641,0.454916 -0.363468,0.887322 -0.290699,0.9609 0.25932,0.262221 1.23957,-0.229173 1.522156,-0.763046 0.334881,-0.63272 -0.138777,-2.104865 -0.677238,-2.104865 -0.44112,0 -1.203533,-0.885357 -1.203533,-1.397624 0,-0.228728 -0.267153,-0.595222 -0.593656,-0.814429 -0.512785,-0.344275 -0.544521,-0.458425 -0.232967,-0.838015 0.46328,-0.564426 0.814551,-0.555907 1.248787,0.0303 0.32561,0.439578 0.376482,0.429323 0.792018,-0.159731 0.390459,-0.553474 0.584338,-0.608201 1.605932,-0.453291 1.091289,0.16547 1.562131,-0.111752 0.896405,-0.527783 -0.534976,-0.334316 -0.238778,-0.604811 0.862756,-0.787902 0.620532,-0.103143 1.34952,-0.186015 1.619979,-0.184168 0.353075,0.0025 0.454539,-0.140478 0.359827,-0.506709 -0.107012,-0.413775 0.100853,-0.581765 1.101058,-0.889852 2.40625,-0.741197 4.175981,-1.074896 5.949003,-1.12174 1.470663,-0.03886 1.913939,-0.159541 2.44746,-0.666348 0.584105,-0.554855 0.818448,-0.601258 2.264664,-0.448415 0.887219,0.09377 1.838672,0.292546 2.114366,0.441733 0.275672,0.149186 1.204171,0.271246 2.063302,0.271246 1.846747,0 4.27781,0.668433 4.492972,1.235366 0.163107,0.429803 -0.432121,1.01825 -1.507215,1.490049 -0.379842,0.166687 -0.52467,0.343541 -0.33867,0.413525 0.178752,0.06725 0.593573,-0.06794 0.921834,-0.300419 0.715158,-0.506511 2.101549,-0.553683 2.561765,-0.08717 0.182041,0.184542 1.370662,0.425 2.641393,0.534353 1.270709,0.109352 3.06527,0.271491 3.987912,0.36031 1.333247,0.128341 1.774866,0.07243 2.151705,-0.2724 0.260774,-0.238638 0.640739,-0.371953 0.844381,-0.29626 0.20362,0.0757 1.184881,0.251876 2.18061,0.391513 1.217129,0.170691 2.087042,0.46651 2.654671,0.902757 1.705481,1.310776 3.631648,1.981865 3.631648,1.265292 0,-0.159122 0.975551,-0.268426 2.395755,-0.268426 2.274356,0 2.407836,-0.03214 2.634307,-0.634453 0.249815,-0.664293 0.950155,-1.086193 1.368827,-0.824562 0.134872,0.0843 1.784768,0.317014 3.666393,0.517147 2.09566,0.2229 3.76553,0.544794 4.31008,0.830841 0.665814,0.349766 1.854974,0.510117 4.738164,0.638904 3.46857,0.154935 4.00409,0.246156 5.41507,0.922434 1.48885,0.713624 1.72363,0.74633 4.77838,0.665712 2.17278,-0.05734 3.40024,0.02089 3.79241,0.24172 0.3189,0.179576 0.90097,0.326504 1.29346,0.326504 0.60928,0 0.6645,-0.05982 0.37779,-0.409125 -0.18467,-0.225018 -0.28888,-0.452129 -0.23159,-0.504695 0.0573,-0.05256 1.37146,0.0066 2.92032,0.131587 3.13913,0.253212 6.23653,0.892498 11.00644,2.27167 1.76216,0.509512 3.55405,0.933761 3.98198,0.94278 0.42794,0.009 1.43078,0.223383 2.22855,0.476365 1.29779,0.411528 1.46956,0.553897 1.63095,1.351921 l 0.18041,0.891955 -1.23271,-0.185955 c -0.67804,-0.102276 -1.63558,-0.355644 -2.12792,-0.563047 -0.49237,-0.2074 -1.46987,-0.377089 -2.17221,-0.377089 -1.04197,0 -1.30789,0.09838 -1.44478,0.534446 -0.2291,0.729894 -0.0567,0.938782 1.46747,1.777569 0.72557,0.399286 1.31916,0.827569 1.31916,0.951738 0,0.124171 -0.41811,0.225765 -0.92911,0.225765 -0.73004,0 -1.15668,0.230076 -1.991,1.073699 -0.58404,0.590533 -1.06187,1.203179 -1.06187,1.361437 0,0.191398 -0.4781,0.227338 -1.42797,0.107335 -0.93518,-0.118145 -1.49024,-0.07849 -1.60845,0.114897 -0.0993,0.162416 -0.56171,0.29715 -1.0276,0.299409 -1.23929,0.006 -1.57464,0.309816 -1.35682,1.229264 0.23229,0.980522 0.593,1.450871 1.11271,1.450871 0.54577,0 2.18441,1.736063 2.18441,2.314273 0,0.254054 0.19568,0.680543 0.43484,0.947757 0.31158,0.348154 0.35623,0.582362 0.15748,0.826407 -0.15402,0.189118 -0.23768,1.146311 -0.18819,2.152432 0.0551,1.121818 -0.26381,1.962854 -0.43296,1.962854 -0.34742,0 -4.69324,-4.138557 -5.75575,-5.362163 -1.02259,-1.177667 -1.25981,-2.235669 -0.7311,-3.260862 0.22369,-0.433734 0.40744,-1.18912 0.40832,-1.678633 0,-0.489515 0.12723,-1.127291 0.2807,-1.417278 0.22174,-0.418945 0.15361,-0.68796 -0.33183,-1.309624 -0.74117,-0.94924 -1.07183,-1.024192 -0.86636,-0.196379 0.10446,0.420608 -0.0191,0.77309 -0.38999,1.112417 -0.53062,0.485549 -0.56559,0.480762 -1.55574,-0.213066 -1.01222,-0.709293 -2.01363,-0.892861 -2.6484,-0.485475 -0.59825,0.383962 -0.85112,1.813417 -0.42865,2.423276 0.35673,0.515044 0.32222,0.557715 -0.59172,0.731077 -0.70146,0.133067 -1.18583,0.05553 -1.74702,-0.279668 -0.63335,-0.378313 -1.07933,-0.425392 -2.41996,-0.255471 -0.90393,0.114573 -2.43787,0.18249 -3.40873,0.15093 -2.1153,-0.06876 -2.37595,0.12938 -3.02382,2.298463 -0.25493,0.853555 -0.63467,1.833455 -0.84389,2.177558 -0.52867,0.869498 -0.28599,1.282615 0.86436,1.471369 0.54184,0.0889 1.21208,0.369305 1.48945,0.623104 0.38658,0.353757 0.57715,0.387758 0.81654,0.145685 0.46717,-0.472376 1.01822,-0.389085 2.55766,0.386594 1.3214,0.665825 1.41191,0.677452 1.7402,0.223471 0.31537,-0.436102 0.58504,-0.229286 3.01803,2.314734 1.87153,1.95695 2.59487,2.887228 2.41517,3.106159 -0.39394,0.479984 -0.01,1.565869 0.84967,2.397877 0.85764,0.830835 0.97353,1.187104 0.38609,1.187104 -0.2139,0 -0.53071,-0.271779 -0.70403,-0.603955 -0.67144,-1.286708 -4.0203,-5.881984 -4.39157,-6.026039 -0.87657,-0.340114 -0.85883,0.383915 0.0441,1.801011 0.83751,1.314468 0.92742,1.640471 0.92742,3.362887 0,1.746734 -0.41635,3.6662 -1.11217,5.127285 -0.35975,0.755455 -1.21322,1.126658 -2.23972,0.974143 -1.03365,-0.153576 -1.69194,0.660908 -1.69194,2.093404 0,0.631472 -0.18617,1.142698 -0.53095,1.458212 -0.76352,0.698688 -0.67536,0.972141 0.68371,2.120855 1.59596,1.348913 2.76734,3.013608 2.76734,3.932713 0,0.587269 -0.1714,0.799163 -0.836,1.033423 -1.34609,0.474482 -1.79133,0.374165 -1.9683,-0.443485 -0.3594,-1.660579 -1.30059,-3.30824 -1.97409,-3.455929 -1.20767,-0.264834 -1.31008,-0.340215 -1.48874,-1.095793 -0.0975,-0.412313 -0.29486,-0.900649 -0.43861,-1.085192 -0.37311,-0.478956 -2.05885,-0.414863 -2.62112,0.09966 -0.71302,0.652469 -1.29175,0.28088 -1.29175,-0.829403 0,-1.318366 -0.78388,-1.2662 -1.89018,0.125788 -0.46933,0.590534 -1.01253,1.073699 -1.20711,1.073699 -0.58939,0 -0.39585,0.756242 0.24354,0.951553 0.32851,0.10035 0.92374,0.491468 1.32275,0.86915 0.67835,0.642105 0.7568,0.658019 1.208,0.245121 0.40253,-0.368348 0.65642,-0.393541 1.53099,-0.151926 0.57665,0.159306 1.08827,0.327342 1.13693,0.373416 0.0487,0.04607 -0.39926,0.576997 -0.99549,1.179834 -0.59618,0.602836 -1.08398,1.279287 -1.08398,1.503219 0,0.223936 0.50771,0.925096 1.12824,1.558134 2.26065,2.306238 3.18383,3.766401 2.95086,4.667231 -0.10089,0.39023 0.0142,0.581715 0.41242,0.687061 0.44118,0.116659 0.55235,0.35818 0.55235,1.20014 0,0.579752 -0.0851,1.140169 -0.18919,1.245377 -0.32509,0.328711 -1.13769,2.687831 -1.13793,3.303549 0,0.733625 -2.91408,3.838796 -3.61317,3.850491 -0.27599,0.0046 -1.09907,0.305489 -1.82909,0.668608 -0.73003,0.363118 -1.48257,0.661318 -1.67235,0.662665 -0.6355,0.0046 -1.911434,0.817064 -1.911434,1.217261 0,0.21766 -0.17919,0.395739 -0.3982,0.395739 -0.21901,0 -0.3982,-0.17693 -0.3982,-0.393189 0,-0.443347 -0.79285,-0.948927 -1.48813,-0.948927 -0.631062,0 -2.759339,2.295463 -2.759339,2.976123 0,0.731152 1.268003,2.555505 2.635249,3.791492 1.27043,1.148484 2.10029,2.853254 2.32571,4.777595 0.15179,1.295998 0.12189,1.375967 -0.82769,2.214238 -0.54186,0.478325 -1.52691,1.382298 -2.18904,2.008821 -1.3075,1.23722 -1.678747,1.255367 -1.678747,0.08203 0,-0.571602 -0.152987,-0.799161 -0.61637,-0.916756 -0.338989,-0.08603 -1.122605,-0.763476 -1.741325,-1.505433 -0.618743,-0.741958 -1.292386,-1.349009 -1.497025,-1.349009 -0.204637,0 -0.616292,-0.265079 -0.914801,-0.589057 -0.6725,-0.729898 -0.890672,-0.50227 -1.291733,1.347701 -0.41931,1.934254 -0.389759,3.135004 0.08704,3.535117 0.218351,0.18323 0.537924,0.808824 0.71021,1.390213 0.191196,0.64526 0.631205,1.2836 1.129451,1.63852 1.971452,1.40435 2.803,2.59859 2.805466,4.02913 0,0.5595 0.240675,1.49082 0.532689,2.06959 0.989646,1.9615 0.656406,2.08318 -1.328588,0.48509 z m 24.092,4.03834 c 0.0977,-0.37785 -0.0167,-0.70007 -0.33098,-0.93246 -0.51675,-0.38206 -0.44596,-0.43751 0.9494,-0.74368 0.38261,-0.084 0.81915,-0.44897 0.98978,-0.82768 0.33445,-0.74217 0.0877,-0.87267 -0.7045,-0.37246 -0.36781,0.23225 -0.95289,0.20586 -2.45195,-0.11057 -1.08292,-0.22859 -1.70598,-0.42625 -1.38468,-0.43926 0.32132,-0.013 1.19181,0.10812 1.93443,0.26915 1.12857,0.24473 1.45603,0.22271 1.99474,-0.13421 0.8464,-0.56077 1.19411,-0.53933 1.19411,0.0737 0,0.82472 -1.02366,1.91517 -1.79788,1.91517 -0.54248,0 -0.62669,0.0716 -0.37894,0.32211 0.37561,0.3798 0.42061,1.19298 0.0778,1.40718 -0.13238,0.0827 -0.17352,-0.1094 -0.0914,-0.42694 z m -50.192424,-9.42218 c -0.264166,-0.19567 -0.581484,-1.03483 -0.761261,-2.01319 -0.325702,-1.7726 -0.626038,-2.015749 -1.409134,-1.140795 -0.592188,0.661645 -1.248719,0.686355 -1.783282,0.06711 -0.599321,-0.694289 -5.254186,-11.04116 -5.248329,-11.666055 0.0031,-0.341099 1.562488,3.06014 2.241056,4.888334 0.19178,0.516712 0.780692,1.805429 1.30866,2.863817 0.52799,1.05838 0.959963,2.045633 0.959963,2.1939 0,0.33498 1.301045,1.921319 1.575775,1.921319 0.110687,0 0.476738,-0.241583 0.813415,-0.536852 1.029536,-0.902863 1.507689,-0.704248 1.717967,0.713652 0.266569,1.79747 0.590071,2.50744 1.142487,2.50744 1.329132,0 1.488981,-1.72483 0.330983,-3.571177 -0.434788,-0.693254 -0.912622,-1.260458 -1.061854,-1.260458 -0.15886,0 -0.251479,-0.639701 -0.223469,-1.543446 l 0.04784,-1.543439 0.100048,1.290352 c 0.06479,0.83592 0.28971,1.482119 0.63857,1.834875 0.572056,0.578427 1.813401,3.081053 1.817756,3.664693 0.0031,0.38581 -1.170699,1.66545 -1.527407,1.66545 -0.124737,0 -0.430627,-0.15099 -0.679781,-0.33553 z m 26.569562,13.76647 c -1.236623,-1.27797 -2.050637,-2.41429 -2.573308,-3.59221 -0.420484,-0.94763 -0.907723,-1.81243 -1.082709,-1.92179 -0.175024,-0.10938 -0.535637,-0.68994 -0.801414,-1.29015 -0.494955,-1.11788 -1.133487,-1.9809 -3.11166,-4.20567 -1.156971,-1.30122 -1.463873,-2.07195 -0.708313,-1.77877 0.230952,0.0896 0.691488,0.16293 1.023413,0.16293 0.376209,0 1.212665,0.5953 2.221159,1.58082 0.889739,0.86945 2.461134,2.14778 3.491968,2.84071 1.956906,1.31545 2.521534,1.99672 2.294798,2.76896 -0.08132,0.27699 0.22014,0.88033 0.758648,1.51841 0.776927,0.92062 0.949618,1.01176 1.323089,0.69833 0.366002,-0.30713 0.486002,-0.28507 0.811037,0.14911 0.49278,0.6583 0.49281,1.03562 1.4e-4,1.44906 -0.230782,0.19365 -0.398199,0.77924 -0.398199,1.39264 0,1.27462 -0.390079,2.09688 -0.994743,2.09688 -0.244813,0 -1.259063,-0.84117 -2.253906,-1.86926 z m 19.034532,1.31716 c -0.0954,-0.15603 -0.097,-0.59159 -0.004,-0.96791 0.1084,-0.43676 0.0104,-0.93041 -0.27123,-1.36489 -0.45468,-0.70163 -0.35201,-1.50758 0.46118,-3.62098 l 0.28272,-0.73476 0.53209,0.68397 c 0.3548,0.45609 0.67621,0.62351 0.96468,0.50251 0.23795,-0.0998 0.83399,-0.27862 1.32457,-0.39735 l 0.89194,-0.21587 -0.69284,0.73124 c -0.85696,0.90443 -0.86435,1.3524 -0.0494,2.9932 0.36419,0.73315 0.58125,1.53665 0.49998,1.85084 -0.16545,0.6398 -0.61262,0.75119 -0.61262,0.15262 0,-0.22146 -0.17042,-0.40264 -0.37875,-0.40264 -0.39293,0 -1.21404,-1.40463 -1.21404,-2.07679 0,-0.88534 -0.66966,-0.0743 -0.7344,0.88963 -0.13727,2.04269 -0.51006,2.77945 -1.00044,1.97718 z m 2.79119,-19.087619 c 0,0 -0.20189,-0.850513 -0.20189,-1.179194 0,-0.328681 -0.70183,-0.641969 -0.92084,-0.726946 -0.457,-0.177333 0.13567,-2.66212 0.55596,-2.924771 0.15522,-0.09699 1.11533,1.023258 1.19893,1.611478 0.0495,0.348 0.799,0.378603 0.95931,0.378603 0.16032,0 0.14507,0.56031 0.36153,0.99907 0.38444,0.779217 0.74802,1.411234 -0.0462,1.811864 -0.9457,0.47704 -1.68297,-0.199094 -1.90677,0.0299 z m 0.27096,11.664899 c -0.90321,-0.34679 -0.88592,-0.35224 0.61871,-0.19531 1.26157,0.13158 1.64418,0.0733 2.0688,-0.31527 0.47443,-0.43416 0.50546,-0.43591 0.34749,-0.0197 -0.0953,0.25136 -0.48878,0.52646 -0.87416,0.61133 -0.38543,0.0849 -0.82021,0.18163 -0.96624,0.21501 -0.146,0.0334 -0.68356,-0.0999 -1.1946,-0.29605 z m -1.58853,-1.25956 c 0.14009,-0.14387 0.69894,-0.12927 1.37676,0.036 l 1.14092,0.27814 -1.37675,-0.036 c -0.81528,-0.0213 -1.2806,-0.13473 -1.14093,-0.27813 z m 2.7756,-14.911473 c 0.40052,-0.655261 -0.20523,-1.603183 -1.32318,-2.070742 -0.63778,-0.266721 -1.34025,-0.808451 -1.5796,-1.21822 -0.38703,-0.66246 -0.39029,-0.813983 -0.032,-1.481997 0.21953,-0.409251 0.40389,-0.64556 0.40974,-0.525127 0.006,0.120433 -0.11906,0.464005 -0.27758,0.76349 -0.37574,0.709894 0.48463,1.695754 2.09709,2.40303 0.62988,0.276278 1.07348,0.61969 0.98581,0.763133 -0.0877,0.143443 0.074,0.496731 0.35908,0.785077 0.28518,0.288347 0.44882,0.594733 0.36364,0.680851 -0.26083,0.263762 -1.16993,0.173581 -1.00302,-0.09949 z m -3.04532,-1.354472 c 0,-0.147628 0.12653,-0.268418 0.28114,-0.268418 0.15463,0 0.20729,0.12079 0.11706,0.268418 -0.0902,0.147635 -0.21676,0.268426 -0.28113,0.268426 -0.0644,0 -0.11707,-0.120791 -0.11707,-0.268426 z m -9.15856,28.935965 c -0.73003,-0.13661 -2.01241,-0.42195 -2.84974,-0.63411 -0.83734,-0.21213 -1.826724,-0.38571 -2.198624,-0.38571 -0.64898,0 -2.00988,-0.50432 -2.725501,-1.00999 -0.187455,-0.13246 -0.26773,-0.43344 -0.178392,-0.66885 0.203159,-0.53532 1.673563,-0.3523 3.037213,0.37804 1.032314,0.5529 1.670454,0.61818 2.365604,0.24199 0.64311,-0.34802 2.78791,0.30763 2.90073,0.88672 0.0472,0.24229 0.26412,0.44052 0.48205,0.44052 0.21789,0 0.64336,0.13376 0.9455,0.29727 0.44062,0.23845 0.47657,0.34388 0.18165,0.53275 -0.20222,0.12949 -0.42742,0.22067 -0.50044,0.2026 -0.073,-0.018 -0.73001,-0.14462 -1.46005,-0.28123 z m 13.74981,-19.14004 c -0.29649,-0.20999 -0.61427,-0.76202 -0.70619,-1.22672 -0.15634,-0.79044 -0.22402,-0.83411 -1.04958,-0.67751 -0.48533,0.0921 -0.96376,0.0852 -1.06315,-0.0153 -0.33325,-0.33698 0.691,-1.165761 1.44074,-1.165761 0.95854,0 2.17098,-1.101325 1.92523,-1.748834 -0.12362,-0.325766 -0.0694,-0.434847 0.17528,-0.35239 0.19488,0.06566 0.56497,0.874718 0.82243,1.79785 0.4561,1.635455 0.79087,1.729485 0.28941,2.236545 -0.28306,0.28622 -0.85064,0.6567 -0.85064,0.86944 0,0.59311 -0.38783,0.70459 -0.98353,0.28271 z m -2.01766,-8.0884 c -0.10135,-0.102547 -0.18439,-0.393106 -0.18439,-0.645697 0,-0.603233 -0.46289,-0.947756 -1.55497,-1.157327 -0.83393,-0.160037 -0.88123,-0.130477 -0.73486,0.459226 0.086,0.346646 0.08,0.707558 -0.0135,0.802007 -0.33063,0.334289 -0.88237,-0.437359 -0.88237,-1.234024 0,-0.444305 -0.23394,-1.190607 -0.51991,-1.658447 -0.44024,-0.720279 -0.4952,-1.148851 -0.35854,-2.796995 0.1562,-1.883853 0.18276,-1.943773 0.82674,-1.86531 0.97664,0.118996 1.53506,1.81586 0.96462,2.931262 -0.36355,0.710844 -0.36089,0.860997 0.0269,1.524842 0.23848,0.408194 0.94202,0.950403 1.57869,1.216668 0.79678,0.333231 1.19906,0.68397 1.31356,1.14529 0.17418,0.701767 -0.14877,1.595316 -0.4621,1.278505 z m -50.070963,4.935982 c -0.02427,-0.853139 -0.771327,-1.014789 -1.462068,-0.316356 -0.22942,0.231996 -0.417154,0.299244 -0.417154,0.149432 0,-0.149803 0.210891,-0.430214 0.468656,-0.62313 0.795386,-0.595288 1.232966,-1.856544 1.565141,-4.51133 l 0.319074,-2.550033 -0.140324,2.888568 c -0.135284,2.784912 -0.117963,2.907727 0.482728,3.422932 0.40964,0.35134 0.467715,0.479869 0.169603,0.375233 -0.339338,-0.119095 -0.495492,0.03272 -0.620525,0.60343 -0.269781,1.231402 -0.342908,1.343822 -0.365131,0.561254 z m 0.684222,2.818458 c -0.262572,-0.43133 -0.49028,-2.779501 -0.33156,-3.418974 0.238599,-0.961284 0.569786,-0.84028 1.340715,0.48989 0.729953,1.259444 0.86162,2.297324 0.35628,2.808294 -0.354988,0.35895 -1.17623,0.4316 -1.365435,0.12079 z M 125.14815,57.231712 c -0.75722,-0.763254 -1.05196,-0.920162 -1.21929,-0.649067 -0.16514,0.267544 -0.43051,0.100147 -1.05434,-0.665116 -0.84426,-1.03566 -1.05187,-1.805964 -0.5682,-2.108229 0.4306,-0.269091 0.30538,-1.084223 -0.28272,-1.840182 -1.00044,-1.286067 -0.18758,-1.486337 1.21187,-0.298567 0.50075,0.425007 0.48996,0.426125 -0.18977,0.01967 -1.00744,-0.602423 -1.05549,-0.556561 -0.54682,0.522019 0.36297,0.769626 0.38769,1.052962 0.12845,1.472693 -0.45823,0.741893 -0.3997,1.177046 0.23656,1.759272 0.54888,0.502275 0.5561,0.501881 0.46458,-0.0255 -0.0818,-0.471007 0.0538,-0.535703 1.12239,-0.535703 0.68558,0 1.65309,-0.653657 1.92953,-0.880768 0.47506,-0.390268 0.25152,0.09817 -0.20885,0.813661 -0.54672,0.849466 -0.44854,0.813668 -1.31646,0.48 -0.85873,-0.330125 -1.21982,0.154849 -0.49668,0.667023 0.47193,0.334233 2.0696,2.275391 1.87277,2.275391 -0.0463,0 -0.53367,-0.452966 -1.0829,-1.006594 z m -6.83902,11.692778 c -0.17411,-0.341148 -0.55773,-0.888097 -0.85247,-1.215449 l -0.53588,-0.595184 0.76817,-0.984302 c 0.42248,-0.541363 0.94733,-1.200367 1.16633,-1.464449 0.25023,-0.301742 0.95728,-0.548166 1.90283,-0.663197 1.29038,-0.156978 1.52719,-0.273897 1.66302,-0.821046 0.0871,-0.3509 0.51042,-0.82209 0.94072,-1.047085 0.53794,-0.281273 0.88219,-0.746036 1.10192,-1.487588 0.28375,-0.957694 0.2548,-1.209648 -0.25863,-2.249184 -0.52873,-1.070464 -0.55053,-2.037673 -0.046,-2.037673 0.11179,0 0.6963,0.540862 1.2989,1.201913 0.93311,1.023567 1.09569,1.374809 1.09569,2.3671 0,0.640854 0.18461,1.793746 0.41022,2.561979 0.22563,0.768235 0.34716,1.500015 0.27002,1.626184 -0.0771,0.126163 -0.85234,0.455663 -1.72277,0.732218 -1.05923,0.336557 -1.62594,0.669142 -1.71378,1.005794 -0.10219,0.391608 -0.28367,0.464297 -0.81956,0.328303 -0.50468,-0.128085 -0.91633,0.0015 -1.54341,0.484857 -0.47034,0.362741 -1.09376,0.637774 -1.38534,0.611187 -0.42859,-0.03908 -0.55564,0.153396 -0.66293,1.004373 -0.15574,1.234953 -0.62991,1.517272 -1.07709,0.641249 z m 4.43656,-13.592886 c -0.52292,-0.584243 -0.54915,-0.949185 -0.1184,-1.646673 0.25923,-0.41973 0.23452,-0.703066 -0.12846,-1.472692 -0.24719,-0.524135 -0.4107,-0.952973 -0.3634,-0.952973 0.0473,0 0.73229,0.360187 1.52213,0.80041 0.78987,0.440226 1.75,0.8026 2.13365,0.805273 0.38362,0.0027 0.85691,0.19908 1.05174,0.436457 0.54493,0.66391 -0.85494,1.581591 -2.41262,1.581591 -0.99074,0 -1.18159,0.08026 -1.11692,0.469744 0.0989,0.59596 -0.0193,0.591554 -0.56777,-0.02113 z m -9.50522,54.634216 c 0.41229,-0.41726 0.68361,-0.44803 2.04582,-0.23203 0.95108,0.15081 1.82204,0.1523 2.20835,0.004 0.79918,-0.30723 0.98046,-0.15389 0.39666,0.3355 -0.30665,0.25707 -1.17664,0.37379 -2.78601,0.37379 -2.2495,0 -2.32172,-0.0187 -1.86482,-0.48105 z m 4.12214,-13.396148 c -0.30958,-0.506508 -0.22952,-1.916236 0.1154,-2.032508 0.17165,-0.05783 0.43533,0.22256 0.58595,0.623145 0.43052,1.144962 -0.15,2.311465 -0.70139,1.409363 z m -2.75477,4.401808 c 0,-0.5206 0.47935,-1.127379 0.89063,-1.127379 0.13942,0 0.0472,0.230639 -0.20521,0.512539 -0.43526,0.4863 -0.43396,0.52712 0.0252,0.79711 0.44466,0.26147 0.43547,0.28523 -0.11334,0.29274 -0.40121,0.005 -0.5973,-0.15048 -0.5973,-0.47501 z m 3.93819,-3.186981 c -0.63956,-0.171276 -0.75089,-0.691213 -0.3091,-1.443443 l 0.38614,-0.657537 -0.13929,0.661166 c -0.0849,0.40302 0.0283,0.848429 0.28997,1.1408 0.2361,0.263807 0.38089,0.465634 0.32178,0.448505 -0.0591,-0.01712 -0.3064,-0.0844 -0.5495,-0.149491 z M 57.022762,87.585635 c -0.01153,-0.17247 -0.08972,-0.534843 -0.173734,-0.80527 -0.145225,-0.467392 -0.137734,-0.467978 0.15151,-0.01188 0.167364,0.263914 0.245553,0.626287 0.173742,0.805271 -0.09424,0.234871 -0.136389,0.238165 -0.151518,0.01187 z m -3.876141,-4.686463 c -0.653763,-0.609343 -1.188661,-1.261119 -1.188661,-1.448405 0,-0.187284 -0.567436,-0.840941 -1.260953,-1.452574 l -1.260978,-1.112068 1.270412,0.874109 c 0.698723,0.480751 1.335543,1.136561 1.415156,1.457344 0.17371,0.699835 1.262346,1.793057 2.358294,2.368212 0.528489,0.277359 0.638112,0.418511 0.325881,0.419607 -0.258768,7.61e-4 -1.005389,-0.49689 -1.659151,-1.106225 z m 4.135391,4.716701 c -0.314921,-0.985662 -0.509617,-1.855783 -0.432641,-1.933615 0.155694,-0.157435 0.20666,-0.02283 0.78483,2.072964 0.576365,2.089361 0.328572,1.991313 -0.352189,-0.139349 z m -3.052294,-4.120637 c -0.08183,-0.133863 0.09032,-0.18017 0.382525,-0.102907 0.619863,0.163902 0.698224,0.346295 0.148772,0.346295 -0.210386,0 -0.449483,-0.109521 -0.531297,-0.243394 z M 31.5171,91.957974 c 0,-0.06361 0.523574,-0.425855 1.163505,-0.805051 0.639917,-0.379196 1.23523,-0.878461 1.322886,-1.109473 0.08769,-0.231014 0.762771,-0.702682 1.50019,-1.048147 1.591977,-0.745792 4.508326,-3.310177 4.508326,-3.964229 0,-0.253269 0.194954,-0.570818 0.433257,-0.705655 0.501668,-0.28388 1.215045,-2.006211 1.260837,-3.044086 0.01727,-0.391895 0.121034,-0.65654 0.230541,-0.588113 0.33439,0.208978 0.221968,1.301651 -0.190661,1.853303 -0.214368,0.286573 -0.393561,0.713713 -0.398198,0.949185 -0.0047,0.23548 -0.247357,0.646771 -0.539379,0.913979 -0.292021,0.267217 -0.530939,0.636004 -0.530939,0.819538 0,0.183526 -0.486516,0.798963 -1.081169,1.36762 -0.594652,0.568674 -1.332943,1.305723 -1.64067,1.637897 -0.30771,0.332173 -0.723068,0.603954 -0.922984,0.603954 -0.59666,0 -2.009513,0.834611 -2.726351,1.61055 -0.610793,0.661159 -2.389191,1.784176 -2.389191,1.508728 z M 43.944217,78.186777 c 0.191632,-0.07755 0.4206,-0.06803 0.508817,0.02116 0.0882,0.0892 -0.06853,0.152634 -0.348423,0.140976 -0.309267,-0.01286 -0.372157,-0.07649 -0.160394,-0.162167 z m 1.708927,-0.277321 c 0.401528,-0.06148 1.058549,-0.06148 1.460077,0 0.401503,0.06148 0.07296,0.111819 -0.730039,0.111819 -0.803032,0 -1.131542,-0.05029 -0.730038,-0.111819 z m -1.659152,-0.08029 c 0,-0.147034 0.785266,-0.264309 1.76977,-0.264309 0.973382,0 1.719997,0.04352 1.659161,0.09664 -0.29049,0.253795 -3.428931,0.407259 -3.428931,0.167662 z m 8.972578,4.634442 c -0.37592,-0.405995 -0.757613,-0.987389 -0.848193,-1.291988 -0.0906,-0.3046 -0.71445,-0.945618 -1.386337,-1.424482 -0.671878,-0.478865 -1.158868,-0.934082 -1.082218,-1.011586 0.270693,-0.273707 2.792663,1.925436 2.967057,2.587249 0.09725,0.369084 0.427718,0.942839 0.734355,1.275013 0.306653,0.33218 0.499319,0.603955 0.428177,0.603955 -0.0711,0 -0.436896,-0.332174 -0.812841,-0.738161 z m 7.235347,12.213315 c -1.713346,-3.836269 -2.137789,-4.854482 -2.057445,-4.935707 0.08787,-0.08888 0.803444,1.42379 2.144331,4.533068 0.366081,0.848893 0.61094,1.54344 0.544115,1.54344 -0.06682,0 -0.350765,-0.513364 -0.631001,-1.140801 z m 1.090463,2.337214 c -0.444784,-0.987078 -0.359928,-1.197654 0.121019,-0.3003 0.224582,0.419044 0.35866,0.812119 0.297949,0.873507 -0.06075,0.0614 -0.249256,-0.196552 -0.418968,-0.573207 z" />
  </g>
</svg>
