<?xml version="1.0" encoding="UTF-8" standalone="no"?>
<!-- Created with Inkscape (http://www.inkscape.org/) -->

<svg
   width="544"
   height="480"
   viewBox="0 0 143.93334 127"
   version="1.1"
   id="svg5"
   inkscape:version="1.1.2 (b8e25be833, 2022-02-05)"
   sodipodi:docname="Australia.svg"
   xmlns:inkscape="http://www.inkscape.org/namespaces/inkscape"
   xmlns:sodipodi="http://sodipodi.sourceforge.net/DTD/sodipodi-0.dtd"
   xmlns="http://www.w3.org/2000/svg"
   xmlns:svg="http://www.w3.org/2000/svg">
  <sodipodi:namedview
     id="namedview7"
     pagecolor="#ffffff"
     bordercolor="#666666"
     borderopacity="1.0"
     inkscape:pageshadow="2"
     inkscape:pageopacity="0.0"
     inkscape:pagecheckerboard="0"
     inkscape:document-units="mm"
     showgrid="false"
     units="px"
     inkscape:zoom="0.38796647"
     inkscape:cx="197.18199"
     inkscape:cy="613.45508"
     inkscape:window-width="1920"
     inkscape:window-height="1057"
     inkscape:window-x="-8"
     inkscape:window-y="-8"
     inkscape:window-maximized="1"
     inkscape:current-layer="layer1" />
  <defs
     id="defs2" />
  <g
     inkscape:label="Layer 1"
     inkscape:groupmode="layer"
     id="layer1">
    <g
       id="g20435"
       transform="matrix(0.37013744,0,0,0.37519505,-538.98481,-267.48474)"
       style="fill:#4ecdc4;fill-opacity:1">
      <path
         id="path18548"
         style="fill:#4ecdc4;stroke-width:1.33333;fill-opacity:1"
         d="m 1700,1043.1636 -4.6667,-2.0435 4.8736,-4.2267 c 5.3019,-4.5981 9.2331,-6.7611 22.4598,-12.3572 8.1416,-3.4447 14.8026,-7.5946 24.1568,-15.05 3.3732,-2.6886 4.4946,-2.9507 7.2501,-1.6952 1.7928,0.8168 3.2597,2.0841 3.2597,2.8161 0,0.732 -3.15,3.7196 -7,6.639 -3.85,2.9194 -8.1168,6.3002 -9.4818,7.5128 -1.365,1.2126 -4.365,2.7263 -6.6667,3.3638 -2.3016,0.6375 -7.1596,3.6198 -10.7953,6.6273 -11.3638,9.4 -16.7292,11.3301 -23.3895,8.4136 z m 61.3333,-33.0009 c 0,-1.0106 1.35,-2.7533 3,-3.8727 2.7058,-1.8356 2.8202,-2.3339 1.1654,-5.0801 -1.7063,-2.83192 -1.4918,-3.31992 3.0658,-6.97618 6.691,-5.36762 9.8354,-12.0783 9.0719,-19.36076 -0.5355,-5.10746 -0.3129,-5.7333 1.8781,-5.28348 2.0244,0.4156 2.4192,1.55216 2.128,6.12706 -0.1966,3.08926 0.2116,5.61682 0.9072,5.61682 0.6956,0 1.4566,1.35 1.6908,3 0.3384,2.3825 1.3115,3.01632 4.7276,3.0793 6.1991,0.11427 6.3891,1.09298 1.0507,5.41366 -2.6096,2.11221 -6.9815,5.69261 -9.7151,7.95648 -7.1298,5.9044 -15.3141,11.2172 -17.2798,11.2172 -0.9299,0 -1.6906,-0.8268 -1.6906,-1.8373 z m -144.4821,-10.82934 c -0.9124,-2.37751 -6.3321,-2.65244 -8.5508,-0.43378 -1.1993,1.19942 -3.2837,0.72524 -8.8995,-2.02457 -7.9106,-3.87343 -10.6674,-7.36343 -9.7222,-12.30795 0.7476,-3.91042 -3.4634,-8.12137 -10.5523,-10.55233 -3.1119,-1.06716 -5.2821,-2.72532 -5.5225,-4.21967 -1.028,-6.38724 -4.7239,-12.18401 -9.0986,-14.27012 -5.0648,-2.41522 -16.6146,-2.89284 -22.6397,-0.93622 -2.126,0.69045 -7.2593,1.9213 -11.4072,2.73522 -4.1479,0.81394 -10.1479,3.1728 -13.3333,5.24194 -4.4483,2.88942 -7.9567,3.93258 -15.1251,4.49718 -5.1333,0.40432 -12.2331,1.98055 -15.7772,3.50271 -7.73,3.31996 -14.4731,3.53869 -18.9364,0.61424 -4.0401,-2.64723 -4.1285,-4.81556 -0.4019,-9.85625 3.6935,-4.99559 4.7343,-20.05022 2.531,-36.60708 -1.0995,-8.26275 -1.1464,-12.18576 -0.1574,-13.17484 0.7747,-0.77467 1.4091,-3.23848 1.4096,-5.47515 7e-4,-2.23667 1.1152,-7.00031 2.477,-10.58587 3.3532,-8.82908 13.3705,-15.58216 32.0316,-21.5938 15.5484,-5.00885 17.7582,-6.551 22.3426,-15.59113 2.454,-4.83922 4.6615,-7.06599 9.1827,-9.26251 3.2736,-1.59045 6.2924,-3.96408 6.7084,-5.27473 1.2905,-4.06619 11.8184,-11.76063 16.0607,-11.73822 4.55,0.024 6.396,1.09236 7.6225,4.41147 1.386,3.75043 5.3287,2.07381 6.7461,-2.86885 0.6971,-2.43026 2.8375,-6.09948 4.7566,-8.15384 2.6364,-2.8224 3.1644,-4.24994 2.1604,-5.84158 -1.9212,-3.04572 -0.2715,-4.0047 7.4888,-4.35336 4.4581,-0.2003 8.0029,0.42708 10.0717,1.7826 1.7557,1.15044 6.9028,2.44678 11.4377,2.88076 l 8.2455,0.78906 0.172,8.33333 c 0.1712,8.29285 0.1539,8.33333 -3.5879,8.33333 -4.777,0 -6.0272,1.96964 -2.9661,4.67316 8.7723,7.7476 19.0975,15.32684 20.8799,15.32684 3.2328,0 6.2189,-5.6494 7.5226,-14.23198 2.1212,-13.96403 8.4071,-31.10135 11.4079,-31.10135 2.3676,0 7.2383,10.68151 7.2383,15.87391 0,2.87769 0.9912,5.16794 2.9086,6.72057 2.868,2.3224 3.1995,3.68793 5.9324,24.44485 0.6996,5.31354 1.7735,7.19712 6.461,11.33334 3.8968,3.4385 5.8973,6.43873 6.5193,9.77761 0.4936,2.64932 2.0857,5.89232 3.5381,7.20666 1.4523,1.31433 2.6406,3.66038 2.6406,5.21345 0,1.55307 1.9604,5.81008 4.3565,9.46001 3.4473,5.2515 4.1759,7.47095 3.4911,10.63627 -0.476,2.2 -0.9364,6.20333 -1.0232,8.89629 -0.092,2.87371 -2.4982,9.4831 -5.8234,16 -4.4177,8.65811 -8.6505,14.18723 -19.2184,25.10371 -7.454,7.7 -15.9496,17.06301 -18.8792,20.80669 -4.2413,5.41992 -6.753,7.27327 -12.3282,9.09683 -3.851,1.25957 -9.145,3.74656 -11.7647,5.52664 -5.5052,3.74095 -7.5524,4.03445 -8.626,1.23651 z m 151.5796,-117.00001 c -3.97,-4.40982 -4.8333,-6.33333 -2.8428,-6.33329 0.9599,3e-5 3.4209,2.10003 5.4688,4.66667 4.184,5.24363 1.8993,6.69351 -2.626,1.66662 z m 74.5685,-24 c 0.8402,-2.52292 5.0007,-2.8816 5.0007,-0.43109 0,1.23684 -1.14,2.09776 -2.7777,2.09776 -1.6294,0 -2.5484,-0.68909 -2.223,-1.66667 z m -154.9065,-47.78428 c -5.9724,-1.17157 -14.7595,-7.97664 -14.7595,-11.43036 0,-2.04652 -4.1877,-4.45202 -7.7505,-4.45202 -2.4009,0 -3.5769,1.86886 -6.0827,9.66666 -1.2957,4.03212 -13.6608,1.86456 -19.3156,-3.38596 -2.7784,-2.57968 -4.5358,-3.1359 -8.3604,-2.64601 -6.2453,0.79997 -7.4013,-1.18039 -4.4758,-7.66795 3.4138,-7.57048 1.9857,-11.0645 -5.9111,-14.4616 -3.6291,-1.56116 -7.5016,-2.83848 -8.6057,-2.83848 -1.104,0 -2.3896,-0.61841 -2.8568,-1.37424 -0.4671,-0.75584 -2.7526,-1.04312 -5.0787,-0.63841 -2.3261,0.40471 -4.8956,0.27312 -5.71,-0.29243 -2.2912,-1.59117 -5.6715,-8.87537 -5.4156,-11.6702 0.1363,-1.48878 -1.2523,-3.3568 -3.4152,-4.59469 -3.4307,-1.9634 -3.7609,-1.91995 -5.6239,0.73961 -1.1002,1.57088 -4.7021,3.51126 -8.1116,4.36975 -4.3814,1.10327 -6.0117,2.13793 -5.7094,3.62355 0.318,1.56289 2.4101,2.15404 8.423,2.38001 4.4,0.16536 8.7638,-0.27401 9.6972,-0.9764 1.2276,-0.92376 1.487,-0.72909 0.9371,0.70365 -0.6163,1.6061 -3.3331,1.9145 -14.3639,1.63052 -7.482,-0.1926 -14.0537,-0.39906 -14.6037,-0.45878 -0.55,-0.0597 -1,-1.3086 -1,-2.77527 0,-2.06463 0.8889,-2.66667 3.9372,-2.66667 2.1656,0 5.3156,-0.55848 7,-1.24105 1.6845,-0.68259 4.5628,-1.55907 6.3961,-1.94776 3.319,-0.70363 5.5992,-4.34408 7.4064,-11.82379 1.119,-4.63111 2.7962,-5.69909 5.4679,-3.4818 1.1499,0.95433 4.1772,1.5554 6.7273,1.33569 2.5502,-0.2197 6.3052,0.29168 8.3446,1.1364 3.906,1.61792 7.1042,6.80429 5.9886,9.71143 -0.9154,2.38583 2.652,6.92966 4.5296,5.76923 1.9276,-1.19133 2.0272,-6.12501 0.124,-6.12501 -0.7766,0 -1.0194,-0.63514 -0.5397,-1.4114 0.4945,-0.80012 2.5159,-1.0504 4.6671,-0.5779 2.0872,0.45842 4.8801,0.2562 6.2064,-0.44937 1.8062,-0.96085 7.097,0.45537 21.0782,5.64229 20.0803,7.4496 29.9734,12.45148 29.9898,15.16271 0.016,2.70929 5.6882,4.14473 15.1377,3.83108 7.1455,-0.23719 9.3783,-0.87441 12.1336,-3.46281 3.4033,-3.19731 10.0723,-4.94768 10.0723,-2.64364 0,0.6833 -0.6128,1.24237 -1.3619,1.24237 -0.7491,0 -1.9821,1.36099 -2.74,3.02443 -2.3657,5.19233 -10.1669,9.57284 -16.5532,9.2949 -4.0507,-0.17629 -6.3021,0.45836 -7.9035,2.22787 -2.1074,2.32865 -2.0544,2.73883 0.9004,6.9636 1.727,2.46905 5.3564,6.78192 8.0656,9.58413 8.124,8.40287 6.5303,10.1046 -6.9813,7.45412 z m -85.9108,217.20623 c -2.5688,-1.4376 -2.3831,-5.8128 0.6548,-15.4219 1.3507,-4.2724 5.3319,-5.9632 7.1425,-3.0335 0.4548,0.736 3.3812,0.9466 6.7454,0.4854 6.6874,-0.9166 7.5357,0.5984 4.0785,7.2841 -3.7857,7.3207 -14.0792,13.2277 -18.6212,10.6859 z m -36.1427,-279.69175 c -1.0393,-1.68156 1.5446,-17.51411 3.1144,-19.08397 0.7483,-0.74834 2.5334,-0.37254 4.5704,0.9622 2.4998,1.63789 3.3426,3.35108 3.3426,6.7945 0,2.53243 -0.54,4.93815 -1.2,5.34604 -0.66,0.40791 -1.2,2.20624 -1.2,3.9963 0,2.71286 -0.6528,3.25464 -3.9214,3.25464 -2.1566,0 -4.2744,-0.57136 -4.706,-1.26971 z m 186.6274,57.2698 c -0.4532,-0.73333 -0.1887,-1.33333 0.588,-1.33333 0.7765,0 1.412,0.6 1.412,1.33333 0,0.73334 -0.2646,1.33334 -0.588,1.33334 -0.3234,0 -0.9588,-0.6 -1.412,-1.33334 z m -26.5199,-21.52832 c -2.0596,-2.94046 -1.6652,-5.82212 0.6048,-4.41917 0.6788,0.41947 1.8389,1.89285 2.5781,3.27417 1.9666,3.67443 -0.7314,4.64498 -3.1829,1.145 z m -120.8135,-0.36262 c 0,-3.351 1.5694,-6.10906 3.476,-6.10906 1.9654,0 2.3908,2.39162 1.048,5.89095 -1.0057,2.62089 -4.524,2.79051 -4.524,0.21811 z M 1784,841.33335 c 0,-0.73333 0.6,-1.33333 1.3333,-1.33333 0.7334,0 1.3334,0.6 1.3334,1.33333 0,0.73334 -0.6,1.33334 -1.3334,1.33334 -0.7333,0 -1.3333,-0.6 -1.3333,-1.33334 z" />
    </g>
  </g>
</svg>
