<?xml version="1.0" encoding="UTF-8" standalone="no"?>
<!-- Created with Inkscape (http://www.inkscape.org/) -->

<svg
   width="544"
   height="480"
   viewBox="0 0 143.93334 127"
   version="1.1"
   id="svg5"
   inkscape:version="1.1.2 (b8e25be833, 2022-02-05)"
   sodipodi:docname="Europe.svg"
   xmlns:inkscape="http://www.inkscape.org/namespaces/inkscape"
   xmlns:sodipodi="http://sodipodi.sourceforge.net/DTD/sodipodi-0.dtd"
   xmlns="http://www.w3.org/2000/svg"
   xmlns:svg="http://www.w3.org/2000/svg">
  <sodipodi:namedview
     id="namedview7"
     pagecolor="#ffffff"
     bordercolor="#666666"
     borderopacity="1.0"
     inkscape:pageshadow="2"
     inkscape:pageopacity="0.0"
     inkscape:pagecheckerboard="0"
     inkscape:document-units="mm"
     showgrid="false"
     units="px"
     inkscape:zoom="0.38796647"
     inkscape:cx="197.18199"
     inkscape:cy="613.45508"
     inkscape:window-width="1920"
     inkscape:window-height="1057"
     inkscape:window-x="-8"
     inkscape:window-y="-8"
     inkscape:window-maximized="1"
     inkscape:current-layer="layer1" />
  <defs
     id="defs2" />
  <g
     inkscape:label="Layer 1"
     inkscape:groupmode="layer"
     id="layer1">
    <path
       id="path17584"
       style="fill:#ffc400;fill-opacity:1;stroke-width:0.506072"
       d="m 124.8774,91.395809 c 0.34987,-0.78244 0.0594,-1.799131 -1.83609,-6.42357 -0.59541,-1.452747 -1.08259,-3.057579 -1.08259,-3.566278 0,-2.737826 8.47959,-3.230851 14.68563,-0.853875 1.72257,0.659758 4.24022,0.08588 4.24022,-0.966488 0,-0.429822 -0.20118,-0.781487 -0.44716,-0.781487 -1.01715,0 -2.93945,-3.573706 -3.15777,-5.870612 -0.17651,-1.857548 -0.42887,-2.407216 -1.16597,-2.540052 -0.51733,-0.09327 -1.20122,0.22648 -1.51966,0.71044 -0.83728,1.272483 -1.63028,1.089142 -2.92882,-0.677202 -1.477,-2.009087 -1.4497,-3.311663 0.0888,-4.241774 1.51205,-0.914065 1.80995,-2.447254 0.75992,-3.910727 -0.49299,-0.687052 -1.01482,-3.022916 -1.39058,-6.224441 -0.33083,-2.818563 -1.10876,-6.644841 -1.72877,-8.50284 -1.64852,-4.939979 -1.56257,-5.329329 1.65552,-7.501639 3.78384,-2.554201 4.15853,-3.469386 2.29003,-5.593273 -0.80351,-0.91341 -2.02019,-1.80683 -2.70367,-1.985372 -0.68346,-0.178554 -1.85099,-0.541447 -2.5945,-0.80644 l -1.35185,-0.4818 1.35185,-0.04554 c 2.48053,-0.08357 7.43515,3.499812 7.43515,5.377412 0,1.008818 -2.60639,3.644726 -4.84411,4.898954 -1.05333,0.590374 -1.91512,1.182665 -1.91512,1.316192 0,0.133541 0.61894,2.208019 1.37545,4.609962 0.79378,2.520428 1.48323,5.95153 1.63032,8.113847 0.16659,2.448737 0.63272,4.58224 1.34561,6.158649 1.25023,2.764691 0.93723,4.345371 -1.04895,5.297828 -1.0637,0.510086 -1.10061,0.642791 -0.49742,1.78861 1.09795,2.085629 1.98938,2.51437 2.94941,1.418526 0.46775,-0.533913 1.17784,-0.970726 1.57802,-0.970726 1.02412,0 2.15294,2.246786 1.86238,3.706942 -0.18285,0.918398 0.286,1.911969 1.87499,3.97406 1.6382,2.126002 2.01856,2.949605 1.67736,3.631867 -0.5818,1.163267 -3.21831,1.854791 -4.63612,1.215966 -2.78808,-1.256244 -7.15194,-1.870501 -10.48778,-1.476222 -3.22789,0.381505 -3.48126,0.505768 -3.48126,1.707201 0,0.712663 0.37764,1.905702 0.83922,2.6512 0.46158,0.74548 0.99334,1.994845 1.18169,2.776314 0.18832,0.781507 0.55368,1.753424 0.81187,2.159868 0.33987,0.535025 0.24493,1.005589 -0.34394,1.705057 -0.44735,0.531352 -0.65948,0.62201 -0.47141,0.201457 z M 47.607129,72.51647 c 0,-0.292943 0.811115,-0.532625 1.802461,-0.532625 2.032856,0 2.093527,-0.196208 1.063982,-3.441564 -0.702925,-2.215835 -0.696192,-2.399321 0.140089,-3.812066 0.4832,-0.816305 1.170376,-1.590767 1.527058,-1.721054 0.356672,-0.130345 0.192249,0.187811 -0.365385,0.70683 -1.134316,1.055806 -1.305514,3.064634 -0.507285,5.952695 0.287061,1.038615 0.335875,2.028499 0.112639,2.284209 -0.605285,0.693364 -3.773564,1.166537 -3.773564,0.563575 z m 9.750587,-2.521861 c 0.142656,-0.468889 0.317378,-0.852521 0.388268,-0.852521 0.0709,0 0.245601,0.383632 0.388269,0.852521 0.156415,0.514111 0.0026,0.852536 -0.388269,0.852536 -0.390554,0 -0.54468,-0.338425 -0.388268,-0.852536 z m 13.005496,-0.852521 c 0.448596,-0.625197 0.91701,-1.136716 1.040914,-1.136716 0.123845,0 -0.141698,0.511519 -0.590285,1.136716 -0.448582,0.625182 -0.916997,1.1367 -1.040914,1.1367 -0.123844,0 0.14172,-0.511518 0.590285,-1.1367 z m 2.073019,-6.652326 c 0.328114,-0.689119 0.693567,-1.130609 0.81212,-0.981086 0.118566,0.149523 -0.149912,0.713346 -0.59658,1.25294 -0.775929,0.937394 -0.785543,0.925277 -0.21554,-0.271854 z m 1.93973,-0.310027 -0.858425,-1.278797 1.013887,1.082715 c 0.55763,0.595492 1.013885,1.170938 1.013885,1.278802 0,0.454824 -0.362666,0.119059 -1.169347,-1.08272 z m -8.864367,-2.201852 c 0.305679,-0.388427 0.669267,-0.563052 0.808013,-0.38806 0.138724,0.175001 -0.111433,0.492788 -0.555758,0.706225 -0.642213,0.308432 -0.693972,0.243154 -0.252255,-0.318165 z m 8.231249,-1.28407 c 0,-0.119846 0.405832,-0.351747 0.901853,-0.515352 0.49601,-0.1636 0.788222,-0.06555 0.649331,0.217892 -0.24255,0.494985 -1.551184,0.745932 -1.551184,0.297462 z m -5.822432,-1.442425 c -0.01957,-0.444275 -0.382909,-1.339436 -0.807421,-1.989239 -0.727773,-1.113985 -0.711877,-1.111812 0.278492,0.03814 0.577701,0.670781 0.941042,1.56594 0.807433,1.989244 -0.196813,0.623561 -0.249681,0.616323 -0.278504,-0.03814 z m 8.751423,-0.613109 c -0.153175,-0.312591 0.02574,-0.568352 0.39743,-0.568352 0.371765,0 0.801252,0.255761 0.95443,0.568352 0.153153,0.312601 -0.02562,0.56836 -0.397431,0.56836 -0.371765,0 -0.801241,-0.255759 -0.954429,-0.56836 z m 4.64697,-1.524955 c 0.32529,-0.164171 0.713969,-0.143989 0.863704,0.04482 0.149724,0.188861 -0.116335,0.32319 -0.591443,0.298513 -0.524951,-0.02727 -0.63173,-0.161951 -0.272261,-0.343378 z M 71.126993,52.94398 c 0.0092,-0.937784 0.110253,-1.25262 0.224424,-0.699629 0.114198,0.552994 0.106828,1.320271 -0.01672,1.705062 -0.123456,0.384794 -0.21691,-0.06766 -0.207721,-1.005433 z m -0.502889,-3.45749 c 0.02166,-0.662103 0.128471,-0.796776 0.272248,-0.343382 0.130183,0.410277 0.114198,0.900483 -0.03552,1.089349 -0.14973,0.18886 -0.256244,-0.146827 -0.236664,-0.745967 z M 93.56994,45.237648 c 0,-0.331042 0.202766,-0.443827 0.450602,-0.250632 0.247847,0.193178 0.450625,0.464049 0.450625,0.601896 0,0.137836 -0.202778,0.250635 -0.450625,0.250635 -0.247836,0 -0.450602,-0.270856 -0.450602,-0.601899 z M 73.630177,42.053012 c 0.309811,-0.157659 0.816742,-0.157659 1.126552,0 0.309801,0.157658 0.05638,0.286671 -0.56327,0.286671 -0.619608,0 -0.873067,-0.129008 -0.563282,-0.286671 z m 23.83234,-0.476123 c -0.156428,-0.514106 -0.0038,-0.852531 0.388297,-0.852531 0.390528,0 0.544648,0.338425 0.38823,0.852531 -0.14265,0.468892 -0.317364,0.852533 -0.38823,0.852533 -0.07085,0 -0.245656,-0.383641 -0.388297,-0.852533 z m -3.977082,-0.672425 c 0.32529,-0.164171 0.713945,-0.143989 0.863692,0.04482 0.149712,0.18886 -0.116453,0.323186 -0.591432,0.298507 -0.524949,-0.02725 -0.631719,-0.161951 -0.27226,-0.343377 z m -3.182474,-0.556517 c 0.309794,-0.157658 0.816744,-0.157658 1.126551,0 0.309806,0.157658 0.05634,0.286671 -0.563287,0.286671 -0.619589,0 -0.873046,-0.129007 -0.563264,-0.286671 z m 8.854582,-1.558935 c 0,-1.083344 0.162239,-1.843262 0.360523,-1.688706 0.198275,0.154555 0.360495,0.726281 0.360495,1.270507 0,0.751948 0.378619,0.989494 1.577129,0.989494 1.54784,0 2.01829,-0.498425 1.12657,-1.193545 -0.24786,-0.193202 -0.44939,-0.78375 -0.44787,-1.312344 0.003,-0.608065 0.25006,-0.363128 0.67592,0.666865 0.94856,2.293939 0.86309,2.562583 -0.79134,2.487032 -0.80546,-0.03679 -1.77879,0.117008 -2.162956,0.341767 -0.558808,0.326961 -0.698471,0.01479 -0.698471,-1.56107 z m 6.835857,-0.841955 c -0.13581,-0.277176 0.093,-0.852635 0.50839,-1.278797 0.65967,-0.676706 0.71791,-0.648866 0.45981,0.219777 -0.39816,1.340039 0.85379,1.330569 1.42292,-0.0107 0.23465,-0.552957 1.38434,-1.328464 2.55486,-1.723331 2.68786,-0.906735 3.10553,-0.551834 0.54475,0.462909 -1.05453,0.417868 -2.33596,1.226506 -2.84762,1.796957 -0.99373,1.107951 -2.23844,1.359067 -2.64311,0.53324 z M 23.531864,119.77117 c -0.578983,-0.80694 -1.398325,-1.18225 -2.580902,-1.18225 -1.538865,0 -1.732615,-0.15597 -1.732615,-1.39413 0,-0.76679 -0.222522,-2.01013 -0.494492,-2.76299 -0.390868,-1.082 -0.330634,-1.76852 0.287498,-3.27615 0.52523,-1.28107 0.775691,-3.17497 0.76283,-5.76812 -0.02719,-5.476498 0.281991,-5.688068 7.60154,-5.20195 l 5.67899,0.37715 0.516977,-1.870465 c 0.284343,-1.028722 0.516966,-2.475254 0.516966,-3.214496 0,-2.106869 -1.856242,-5.196379 -3.679249,-6.123688 -1.926342,-0.979878 -2.266563,-1.4942 -1.722636,-2.604236 0.249828,-0.509844 1.178826,-0.815369 2.50972,-0.825407 1.785774,-0.01288 2.172272,-0.217821 2.495379,-1.319573 0.326751,-1.114113 0.518841,-1.211534 1.321018,-0.67005 1.059015,0.714853 2.463069,-0.153533 4.512085,-2.790962 0.635509,-0.817961 1.788151,-1.913258 2.561425,-2.433976 0.773288,-0.520701 1.909468,-1.95273 2.524852,-3.182259 1.042735,-2.083391 1.31304,-2.270355 3.97249,-2.74756 3.148568,-0.564942 2.974093,-0.165841 2.372718,-5.427821 -0.270967,-2.371048 -0.192371,-2.731206 0.765379,-3.507329 2.032366,-1.646895 2.777661,-1.440712 3.225847,0.892428 0.440622,2.293683 0.997552,2.601467 2.374209,1.312082 0.739276,-0.69241 0.785752,-0.978395 0.300215,-1.847155 -0.315966,-0.565346 -0.984496,-2.114881 -1.485589,-3.44341 -0.501095,-1.32853 -1.057312,-2.415509 -1.236024,-2.415509 -0.178694,0 -1.03101,0.603286 -1.894031,1.34064 -2.313131,1.976338 -3.369834,2.246757 -4.894255,1.252473 -1.469928,-0.958728 -1.649206,-1.459621 -2.089288,-5.836978 -0.268377,-2.669572 -0.188313,-3.087403 0.816939,-4.262659 1.680752,-1.964962 4.176517,-3.750291 6.206426,-4.439707 0.999413,-0.339429 1.934553,-1.003159 2.078091,-1.474954 0.143513,-0.47179 1.440284,-2.440526 2.881654,-4.374958 1.996952,-2.680083 2.563379,-3.810386 2.37994,-4.749246 -0.257196,-1.316391 1.238521,-2.84292 2.115614,-2.159208 0.250884,0.195565 1.209881,-0.217369 2.131118,-0.91764 0.921248,-0.700258 2.486084,-1.467867 3.477444,-1.705788 0.99136,-0.237931 3.094261,-0.79921 4.673104,-1.247299 3.393313,-0.963041 9.099207,-0.48382 10.322227,0.866937 0.426921,0.4715 1.384556,0.99799 2.128063,1.169978 5.688596,1.315878 12.104027,3.891228 13.431321,5.391758 0.554633,0.627002 0.726867,1.358755 0.540397,2.295884 -0.23277,1.169792 -0.15233,1.306245 0.537736,0.912204 0.446325,-0.254839 1.470515,-0.433252 2.275975,-0.396466 1.67024,0.07626 1.73248,-0.136928 0.75842,-2.59953 -0.81465,-2.059743 -0.55863,-2.936327 0.85771,-2.936327 1.48829,0 3.15996,1.633755 2.57746,2.519003 -1.06683,1.621322 1.04072,1.808652 2.45383,0.249167 0.51166,-0.564654 2.28265,-1.438107 3.97209,-2.165505 2.5825,-1.111903 3.23784,-1.210406 4.11475,-0.618461 1.04664,0.706498 2.55367,0.530857 5.57289,-0.649509 1.43532,-0.561154 1.46341,-0.626555 0.7162,-1.667922 -1.03994,-1.449394 -0.56888,-1.887935 1.25195,-1.165508 0.82206,0.326173 2.66638,0.765683 4.09849,0.976686 2.59032,0.381643 4.97748,1.902905 5.88947,3.753206 0.65404,1.326943 -0.21654,2.48204 -3.39691,4.506949 -3.0465,1.939707 -3.13926,2.396097 -1.49066,7.336339 0.62001,1.857999 1.39794,5.684277 1.72876,8.50284 0.37577,3.201525 0.89759,5.537389 1.39059,6.224441 1.05004,1.463473 0.75212,2.996662 -0.75992,3.910727 -1.5386,0.930111 -1.5659,2.232687 -0.0888,4.241774 1.29856,1.766344 2.09155,1.949685 2.92882,0.677202 0.31845,-0.483969 1.00233,-0.803672 1.51969,-0.71044 0.73709,0.132755 0.98943,0.682504 1.16596,2.540052 0.21831,2.296906 2.1406,5.870612 3.15778,5.870612 0.24593,0 0.44715,0.351665 0.44715,0.781487 0,1.052376 -2.51765,1.626246 -4.24019,0.966488 -6.20607,-2.376976 -14.68567,-1.883951 -14.68567,0.853875 0,0.508699 0.53959,2.241404 1.19912,3.850457 2.41637,5.895295 2.39818,5.720908 0.716,6.8654 -0.68154,0.463717 -2.03421,1.706064 -3.00589,2.760783 l -1.76669,1.917666 1.05895,2.795279 c 0.58245,1.537394 1.95972,4.138004 3.06063,5.779144 1.54731,2.30649 1.8185,2.98386 1.19481,2.98386 -0.95458,0 -5.29868,-2.99924 -7.11032,-4.90909 -0.72176,-0.76091 -1.86392,-1.34281 -2.63558,-1.34281 -0.749,0 -2.00082,-0.36767 -2.78179,-0.81704 -3.3227,-1.911852 -4.7968,-2.487588 -5.64923,-2.206419 -0.52959,0.174665 -1.92577,-0.397635 -3.35943,-1.377029 l -2.45327,-1.675931 -2.188836,1.048511 c -1.203886,0.576653 -2.314814,1.048705 -2.468743,1.048965 -0.153938,2.32e-4 -0.762271,-0.902072 -1.351853,-2.005124 -0.589577,-1.103061 -1.670043,-2.387699 -2.401008,-2.854741 -1.209816,-0.77298 -1.399129,-0.75877 -2.110085,0.158361 -1.036235,1.336795 -3.99603,8.587557 -3.99603,9.789257 0,0.52103 0.2977,1.44377 0.661588,2.05055 0.957209,1.59622 0.871109,1.84523 -0.974418,2.81782 -1.285889,0.67764 -1.974995,0.74082 -3.028438,0.27764 -1.13933,-0.50093 -1.566901,-0.41022 -2.597939,0.55123 -0.678784,0.63298 -1.546533,1.15088 -1.928333,1.15088 -1.036992,0 -0.847108,0.87744 0.657678,3.03912 0.743533,1.06807 1.351865,2.08836 1.351865,2.26735 0,0.17896 -0.50695,0.9648 -1.126562,1.74628 -0.619593,0.78149 -1.126523,1.81616 -1.126523,2.29927 0,0.48309 -0.114729,0.87836 -0.254936,0.87836 -1.270289,0 -4.667733,-4.23801 -4.688632,-5.84866 -0.0079,-0.55969 -0.460717,-1.78105 -1.007654,-2.71413 -0.546938,-0.93308 -1.104583,-2.87141 -1.239193,-4.30742 -0.239316,-2.55285 -0.31261,-2.65682 -3.296,-4.67449 -2.739504,-1.8527 -3.506309,-2.5479 -5.059843,-4.587139 -0.247819,-0.325323 -1.098057,-1.243805 -1.889394,-2.041053 -1.429909,-1.440596 -1.441859,-1.442314 -1.935953,-0.277868 -0.273435,0.644438 -0.348751,1.48611 -0.16734,1.870404 1.042024,2.207351 4.162834,6.304446 5.332934,7.001216 2.270813,1.35222 5.1937,4.23484 5.1937,5.12213 0,0.66169 -0.188967,0.70743 -0.910554,0.22033 -1.284625,-0.86715 -1.861192,-0.23554 -1.272518,1.39401 0.390843,1.08194 0.320968,1.63455 -0.354954,2.80718 -0.46287,0.80305 -1.151813,1.59375 -1.530959,1.75712 -0.379157,0.16337 -0.918515,1.06277 -1.198603,1.99867 l -0.509213,1.70161 -1.875508,-1.05907 c -3.531539,-1.99423 -3.55347,-3.47803 -0.05148,-3.47803 2.611188,0 4.030136,-1.44798 3.241124,-3.30743 -0.498928,-1.17587 -3.747552,-4.64953 -4.348308,-4.64953 -0.916389,0 -5.287737,-4.84598 -5.692535,-6.31062 -0.696298,-2.519255 -2.21673,-2.700774 -4.913229,-0.58657 -2.128832,1.66914 -2.35789,1.72872 -4.224759,1.09894 -2.228587,-0.75179 -3.629897,0.0595 -3.251886,1.88273 0.234404,1.13064 -1.023474,2.76969 -3.181037,4.14504 -1.805538,1.15093 -2.941558,3.25679 -3.000842,5.56259 -0.06457,2.51704 -3.563744,6.18761 -6.476112,6.79364 -1.171866,0.24386 -2.743544,0.6014 -3.492641,0.79459 -1.040016,0.2682 -1.562512,0.0717 -2.210258,-0.83102 z m 4.491923,-37.438947 c -0.138581,-0.174811 0.185175,-0.90477 0.719496,-1.622137 0.816517,-1.096229 0.877729,-1.446816 0.383713,-2.197583 -0.445203,-0.676606 -0.461244,-1.052874 -0.06615,-1.551215 0.286904,-0.361866 0.521654,-1.124634 0.521654,-1.695036 0,-0.590753 0.49828,-1.276076 1.157779,-1.592317 1.395537,-0.669226 1.37494,-2.892089 -0.03128,-3.371851 -0.49568,-0.169109 -1.458864,-0.784468 -2.140427,-1.367457 -1.028026,-0.87936 -1.239191,-1.474641 -1.239191,-3.493343 0,-2.073949 0.23526,-2.693876 1.59284,-4.197289 0.876039,-0.970166 1.950767,-1.763939 2.388259,-1.763939 0.437491,0 1.03538,-0.302649 1.328663,-0.67255 0.805067,-1.015444 1.271554,-0.0086 0.61261,1.322096 -0.644249,1.301148 -0.672331,1.21876 0.72895,2.138445 0.942124,0.618314 0.971265,0.782597 0.387952,2.186787 -0.579101,1.394022 -0.534804,1.682776 0.541442,3.529013 0.64467,1.10593 1.534681,2.468308 1.977797,3.027532 0.443103,0.559206 0.805648,1.395924 0.805648,1.859319 0,0.463428 0.506929,1.133913 1.126527,1.489979 0.619599,0.356082 1.126554,0.958755 1.126554,1.339295 0,1.352182 -1.372855,4.809664 -1.921166,4.838388 -1.46977,0.077 -6.598454,1.065828 -8.082484,1.558353 -0.916985,0.304334 -1.780637,0.41031 -1.919236,0.235522 z m -8.19832,-4.40182 c -0.146183,-0.480539 0.06458,-1.334024 0.468176,-1.896666 0.510996,-0.712178 0.648711,-1.560817 0.45327,-2.793312 -0.246644,-1.555403 -0.141679,-1.814371 0.864644,-2.132929 0.629962,-0.199429 1.495886,-0.851103 1.924306,-1.448171 0.934175,-1.301949 4.140613,-1.518962 4.509882,-0.30522 0.130591,0.429209 -0.148629,2.280072 -0.620468,4.113033 -0.819012,3.181664 -0.958008,3.377942 -3.067905,4.332508 -2.724532,1.232641 -4.183844,1.274738 -4.531905,0.130823 z M 6.6862031,47.138947 C 6.1134149,47.00097 5.5227719,46.46035 5.3736902,45.937554 5.2245712,45.414758 4.7280023,44.304519 4.2701505,43.470352 3.5111494,42.087477 3.5005724,41.874412 4.1504027,41.054849 5.040966,39.931597 6.767456,39.89163 7.4821046,40.977719 c 0.3685547,0.560116 0.8523516,0.676193 1.5196681,0.364585 0.5384453,-0.251421 2.5359533,-0.6302 4.4389233,-0.841729 3.202927,-0.356028 3.529295,-0.290708 4.393504,0.879287 1.184451,1.603543 1.175857,2.290321 -0.04066,3.248503 -2.883503,2.271295 -7.638709,3.346102 -11.1073727,2.510571 z M 113.50968,29.287936 c -1.30116,-0.630752 -2.36574,-1.472934 -2.36574,-1.871513 0,-0.398586 0.79634,-2.278693 1.76961,-4.17802 2.04604,-3.992771 4.59194,-5.81658 8.11942,-5.81658 1.16272,0 3.17416,-0.397088 4.46989,-0.882421 2.4026,-0.899913 4.30142,-0.670415 3.99655,0.483041 -0.0931,0.352473 -1.87858,1.173338 -3.96766,1.824134 -4.48888,1.398388 -5.06746,1.76934 -7.30626,4.684237 -1.93148,2.514778 -1.88641,3.659866 0.19763,5.019143 3.10881,2.027676 -0.98469,2.642491 -4.91344,0.737979 z m -53.510617,-13.33 C 56.366488,13.671088 55.04229,12.457705 55.04229,11.41598 c 0,-0.967379 0.349819,-1.10538 2.929001,-1.155442 1.610945,-0.03123 3.841498,-0.3282177 4.956774,-0.6598872 2.137653,-0.6357211 10.610533,-0.5828534 11.127692,0.069416 0.623558,0.7864762 -0.863509,1.7654192 -3.140327,2.0672822 l -2.354667,0.312184 1.493232,1.01442 c 0.821294,0.557923 1.412808,1.31911 1.314507,1.691512 -0.309638,1.173017 -1.743628,1.116838 -3.070282,-0.120275 -1.702023,-1.587138 -2.3501,-1.507469 -4.174771,0.513207 -1.735481,1.921902 -2.209599,2.014965 -4.124386,0.809532 z m 49.889287,-6.10221 c -3.04535,-0.4149322 -3.64142,-0.6494065 -3.23214,-1.2714133 0.77541,-1.1784365 5.29345,-2.3089961 5.94474,-1.4875571 0.28914,0.3646719 1.08152,0.6630387 1.76082,0.6630387 1.41745,0 1.98744,0.7558552 1.1707,1.5524401 -1.00192,0.9771756 -1.8569,1.0595046 -5.64412,0.5434916 z M 98.701338,9.3614773 c -0.388766,-0.79338 -0.175087,-0.8973971 2.295202,-1.1175132 1.75823,-0.156657 2.27437,-0.00811 2.38216,0.685772 0.10936,0.7037655 -0.32982,0.8946604 -2.13741,0.9290509 C 99.990029,9.88265 98.847052,9.6588084 98.701338,9.3614773 Z M 51.06185,113.09485 c -0.411295,-0.51878 -0.380888,-5.01216 0.0375,-5.54793 0.185869,-0.23799 0.337963,-1.36136 0.337963,-2.49638 0,-1.45896 0.216697,-2.11808 0.739578,-2.24938 0.617616,-0.15515 0.793728,0.58554 1.067824,4.49089 0.290929,4.14544 0.235525,4.76208 -0.487773,5.42915 -0.917894,0.84656 -1.260346,0.92204 -1.695143,0.37365 z" />
  </g>
</svg>
