<?xml version="1.0" encoding="UTF-8" standalone="no"?>
<!-- Created with Inkscape (http://www.inkscape.org/) -->

<svg
   width="544"
   height="480"
   viewBox="0 0 143.93334 127"
   version="1.1"
   id="svg5"
   inkscape:version="1.1.2 (b8e25be833, 2022-02-05)"
   sodipodi:docname="NorthAmerica.svg"
   xmlns:inkscape="http://www.inkscape.org/namespaces/inkscape"
   xmlns:sodipodi="http://sodipodi.sourceforge.net/DTD/sodipodi-0.dtd"
   xmlns="http://www.w3.org/2000/svg"
   xmlns:svg="http://www.w3.org/2000/svg">
  <sodipodi:namedview
     id="namedview7"
     pagecolor="#ffffff"
     bordercolor="#666666"
     borderopacity="1.0"
     inkscape:pageshadow="2"
     inkscape:pageopacity="0.0"
     inkscape:pagecheckerboard="0"
     inkscape:document-units="mm"
     showgrid="false"
     units="px"
     inkscape:zoom="0.38796647"
     inkscape:cx="197.18199"
     inkscape:cy="613.45508"
     inkscape:window-width="1920"
     inkscape:window-height="1057"
     inkscape:window-x="-8"
     inkscape:window-y="-8"
     inkscape:window-maximized="1"
     inkscape:current-layer="layer1" />
  <defs
     id="defs2" />
  <g
     inkscape:label="Layer 1"
     inkscape:groupmode="layer"
     id="layer1">
    <path
       id="path18580"
       style="fill:#8bc34a;stroke-width:0.274577;fill-opacity:1"
       d="m 70.089704,65.419563 c 1.360073,-0.697485 1.626605,-1.201269 0.635526,-1.201269 -1.001653,0 -3.209798,0.953913 -3.209798,1.386627 0,0.976072 0.360079,0.950147 2.574272,-0.185358 z M 64.455471,65.24151 c 0.201742,-0.303031 0.580115,-1.195887 0.840821,-1.984124 0.275357,-0.832535 0.889876,-1.866199 1.466311,-2.46643 0.545759,-0.568296 0.992298,-1.163039 0.992298,-1.321647 0,-0.384426 -0.724897,-0.365207 -1.58067,0.0419 -0.990943,0.471413 -2.938866,4.139857 -2.95917,5.572885 -0.01234,0.871033 0.704727,0.962034 1.24041,0.157416 z m 5.616835,-2.882349 c 0.494821,-0.905058 0.82818,-1.216581 1.263351,-1.180633 0.395246,0.03263 0.620652,-0.138771 0.680182,-0.517255 0.155793,-0.990685 -0.32282,-1.322924 -1.905791,-1.322924 -1.44358,0 -1.514115,0.0353 -1.45717,0.729138 0.03292,0.401029 -0.05892,1.02086 -0.204048,1.377404 -0.197138,0.484295 -0.186897,0.837397 0.04046,1.395998 0.42781,1.050968 0.808308,0.935178 1.582981,-0.481728 z m 4.354568,0.720773 c 0.787286,-0.724993 0.353645,-1.028941 -1.100897,-0.771644 -1.359382,0.240462 -1.633632,0.426789 -1.390247,0.944553 0.241045,0.512766 1.869279,0.399753 2.491144,-0.172909 z m -6.608669,-4.731485 c 1.197467,-0.260208 1.421493,-1.245965 0.560687,-2.467115 -0.716539,-1.016504 -1.314574,-0.982021 -3.676614,0.211996 -1.78456,0.902099 -2.20083,1.344015 -1.783218,1.893064 0.22537,0.296301 0.534067,0.293382 1.406176,-0.0133 0.958793,-0.337147 1.169839,-0.323998 1.486717,0.09262 0.406803,0.534836 0.673245,0.572384 2.006252,0.282726 z m 8.973515,-7.730058 c 0.407371,-0.444487 0.829232,-2.619102 0.737045,-3.799249 -0.06981,-0.893948 0.0049,-1.000227 1.002159,-1.429396 0.592683,-0.255001 1.508642,-0.841531 2.035473,-1.303398 0.905187,-0.793579 0.957869,-0.926552 0.957869,-2.418092 0,-1.292052 0.130308,-1.78384 0.718395,-2.711295 0.395126,-0.623122 1.088505,-1.794655 1.540842,-2.603392 0.732617,-1.309867 0.899335,-1.450223 1.526603,-1.285282 0.387296,0.101827 1.166827,0.185155 1.7323,0.185155 0.868434,0 1.178377,0.189797 1.99547,1.221947 0.919523,1.161536 0.953399,1.270521 0.685248,2.204529 -0.248716,0.86631 -0.221765,1.061907 0.227749,1.652895 0.382931,0.503458 0.670772,0.617203 1.15638,0.456968 0.804301,-0.265405 3.271662,-3.287077 3.177837,-3.891761 -0.0729,-0.46952 -2.604521,-1.959412 -3.329484,-1.959412 -0.233853,0 -0.565766,-0.376867 -0.737585,-0.837484 -0.171826,-0.460614 -0.5818,-1.094407 -0.911068,-1.408422 -0.50611,-0.482671 -0.761912,-0.52157 -1.654525,-0.251593 -0.750729,0.227057 -1.131345,0.218526 -1.317078,-0.02954 -0.471096,-0.629201 0.529883,-1.23249 1.962708,-1.182927 1.034233,0.03577 1.402416,-0.08515 1.711805,-0.562208 0.216796,-0.33428 0.820824,-0.891134 1.342301,-1.237455 0.612254,-0.406605 0.975235,-0.880614 1.024648,-1.338047 0.06705,-0.621105 -0.02881,-0.70838 -0.778268,-0.70838 -0.733263,1e-6 -0.854786,-0.103354 -0.854786,-0.726911 0,-0.399804 -0.155084,-1.001928 -0.344622,-1.338051 -0.301142,-0.534043 -0.410261,-0.558375 -0.86496,-0.192898 -0.353236,0.283922 -0.886656,0.351997 -1.661023,0.211976 -1.112049,-0.201082 -1.147132,-0.181941 -1.397525,0.762395 -0.141267,0.53276 -0.35713,0.968657 -0.479712,0.968657 -0.122576,0 -0.354851,0.418906 -0.516153,0.930899 -0.213913,0.678966 -0.594423,1.077066 -1.405993,1.470975 -0.611985,0.297037 -1.246867,0.674107 -1.410842,0.837935 -0.197317,0.197143 -0.500966,0.123131 -0.897994,-0.218889 -0.966775,-0.832822 -0.69,0.0099 0.477727,1.454674 0.592684,0.733272 1.077603,1.503445 1.077603,1.711498 0,0.494949 -0.700026,0.689379 -1.367731,0.379881 -0.334475,-0.155034 -0.775623,-0.07676 -1.197337,0.212437 -0.851411,0.583882 -1.685056,0.581362 -2.544095,-0.0077 -0.539446,-0.369915 -0.906577,-0.398563 -1.786202,-0.13939 -0.608955,0.179422 -1.228667,0.458761 -1.377134,0.620754 -0.148459,0.161995 -0.719792,0.503208 -1.26963,0.758255 -0.549824,0.255047 -1.456478,0.868961 -2.014786,1.364251 -0.558308,0.495286 -1.368984,1.086903 -1.801491,1.314698 -0.432515,0.227802 -1.005174,0.779861 -1.272576,1.226806 -0.453129,0.75736 -0.458547,0.839205 -0.07966,1.203445 0.301586,0.289927 0.367308,0.64864 0.254592,1.389585 l -0.151937,0.99877 1.07013,-0.158583 c 0.946531,-0.140262 1.174737,-0.04155 1.975852,0.854741 1.142142,1.27783 1.62676,1.601548 2.821459,1.884711 1.403551,0.332667 1.622418,0.685119 0.963434,1.551502 -0.667868,0.878071 -0.992252,3.018168 -0.602578,3.975452 0.219197,0.538486 0.410486,0.636886 0.914682,0.470511 0.350632,-0.115706 0.772052,-0.357155 0.936468,-0.536564 z M 60.810348,118.5274 c -0.30933,-0.43291 -0.809594,-0.78711 -1.111696,-0.78711 -0.351386,0 -0.669494,-0.30164 -0.882953,-0.83725 -0.183521,-0.46053 -0.684406,-1.06263 -1.113075,-1.33806 -0.54489,-0.35011 -0.873948,-0.86876 -1.093632,-1.72377 -0.357921,-1.39302 -1.825893,-3.5202 -2.589832,-3.75283 -1.517011,-0.46197 -3.200302,-1.60531 -4.232817,-2.87508 l -1.163307,-1.4306 -1.426285,0.19601 c -1.33433,0.18336 -1.555144,0.11191 -3.425163,-1.10823 -3.328725,-2.1719 -4.00954,-2.71231 -4.969178,-3.94428 -0.881576,-1.131777 -0.921053,-1.270091 -0.921053,-3.227384 0,-2.234773 -0.783749,-4.805327 -1.882596,-6.17458 -0.310018,-0.386293 -0.565531,-1.068491 -0.567803,-1.515973 -0.0024,-0.447472 -0.450386,-1.651124 -0.995799,-2.674781 -0.801108,-1.50354 -1.008836,-2.186232 -1.081029,-3.552734 -0.107971,-2.043637 -0.190668,-2.246507 -0.915758,-2.246507 -0.736226,0 -1.057956,1.568282 -0.53641,2.614783 0.191922,0.385092 0.462903,1.33565 0.602179,2.112343 0.41867,2.33476 1.346839,5.269861 1.920256,6.072344 0.449104,0.628493 0.498811,0.893773 0.297753,1.58902 -0.132742,0.459022 -0.306401,0.834586 -0.385913,0.834586 -0.07952,0 -0.632024,-0.640874 -1.227806,-1.424179 -0.885317,-1.16394 -1.055883,-1.567481 -0.933506,-2.208542 0.120079,-0.629006 -0.04108,-1.045431 -0.81359,-2.102435 -1.085188,-1.484794 -1.074382,-1.444066 -0.601258,-2.266075 0.306747,-0.532942 0.294926,-0.714908 -0.102262,-1.574176 -0.247006,-0.534358 -0.522867,-1.750792 -0.613027,-2.703168 -0.294729,-3.113345 -0.564631,-3.99619 -1.557759,-5.095421 l -0.943102,-1.043866 -0.248709,-3.253707 c -0.136788,-1.789537 -0.18583,-3.631323 -0.108979,-4.092859 0.268564,-1.612883 1.621212,-4.951841 2.996033,-7.39561 0.839251,-1.491775 1.585668,-3.252512 1.892198,-4.46354 l 0.506214,-1.99995 -0.519653,-1.339192 c -0.504262,-1.299531 -0.506441,-1.351912 -0.0736,-1.768499 0.665128,-0.640154 0.583962,-4.91878 -0.109418,-5.768077 -0.414628,-0.507861 -0.472452,-0.936304 -0.425304,-3.151218 0.07457,-3.50354 -0.201511,-3.958486 -2.553356,-4.207431 -3.27821,-0.347004 -3.972928,-0.278817 -6.817182,0.66911 -1.08314,0.360989 -1.576645,0.403494 -1.804035,0.155381 -0.379407,-0.413981 -0.774951,-0.125113 -0.991836,0.724365 -0.182416,0.714465 -1.375138,1.794402 -2.652491,2.401673 -0.705428,0.335373 -0.952801,0.33599 -1.357885,0.0034 -0.356137,-0.292411 -0.673054,-0.319703 -1.127839,-0.09712 -0.347886,0.170262 -1.602363,0.696152 -2.787725,1.168641 -1.185364,0.472489 -2.3066081,1.016955 -2.491655,1.209926 -0.1850479,0.192972 -0.9164489,0.350857 -1.6253351,0.350857 H 5.9544882 l 0.9069305,-0.527644 c 0.498813,-0.290188 1.093559,-0.538121 1.3216578,-0.550961 0.3915932,-0.02203 3.6737375,-2.011874 4.9732885,-3.015097 0.644062,-0.4972 0.570407,-0.558849 -0.718402,-0.601271 -0.761138,-0.02505 -0.833994,-0.107128 -0.793051,-0.893384 0.02479,-0.476189 -0.0445,-0.865798 -0.153982,-0.865798 -0.442846,0 -0.450536,-1.014109 -0.01483,-1.956055 0.293928,-0.635445 1.100612,-1.452529 2.209103,-2.237584 1.512904,-1.071469 1.970674,-1.244021 3.427569,-1.292004 1.783475,-0.05875 2.269745,-0.265981 2.269745,-0.967283 0,-0.312183 -0.235078,-0.395276 -0.838134,-0.296253 -0.460976,0.0757 -1.215297,0.199554 -1.676273,0.275247 -0.751177,0.123343 -0.838133,0.06035 -0.838133,-0.607179 0,-1.115623 0.445817,-1.513297 2.624287,-2.340894 1.821259,-0.691893 2.001585,-0.710767 2.20586,-0.230863 0.252955,0.594263 0.810126,0.689998 1.049696,0.180364 0.08849,-0.18825 0.04096,-0.499937 -0.105599,-0.692638 -0.146574,-0.192704 -0.266496,-0.741378 -0.266496,-1.219272 0,-0.756518 0.131635,-0.914933 1.017737,-1.224811 0.559755,-0.195749 1.987578,-0.753551 3.172941,-1.239562 1.185363,-0.486012 3.017289,-1.054118 4.070943,-1.262466 1.053658,-0.208345 2.290832,-0.475537 2.749278,-0.593756 0.458444,-0.118229 1.482167,-0.03755 2.274938,0.179259 0.79277,0.21682 2.519004,0.557385 3.836075,0.756816 1.31707,0.199432 3.148995,0.576854 4.070941,0.838713 2.224662,0.63187 4.529726,0.5587 7.116739,-0.225909 0.563832,-0.171002 1.436334,-0.314378 1.938895,-0.318611 0.502559,-0.0042 1.110866,-0.146396 1.351793,-0.315918 0.317303,-0.223261 0.517912,-0.181695 0.727803,0.150802 0.209892,0.332499 0.410499,0.374067 0.727802,0.150806 0.59898,-0.421459 0.960415,-0.386755 0.888601,0.08531 -0.03818,0.25098 0.287129,0.427017 0.898003,0.485946 0.526829,0.05082 1.28115,0.286503 1.676271,0.523739 0.395121,0.237239 1.233488,0.53115 1.863039,0.653141 0.952473,0.18456 1.121908,0.315939 1.009261,0.782566 -0.121759,0.504361 0.0883,0.57398 2.088172,0.692083 1.750294,0.103365 2.285624,0.03324 2.515211,-0.329473 0.487007,-0.769414 0.112332,-0.994202 -1.327377,-0.796359 -1.0957,0.150566 -1.437557,0.08576 -1.69445,-0.321195 -0.177002,-0.280398 -0.517788,-0.509816 -0.757302,-0.509816 -0.589292,0 -0.854482,-0.644798 -0.440466,-1.070975 0.184757,-0.190181 0.330228,-0.770813 0.323271,-1.290291 -0.01475,-1.101324 -0.1558,-1.117775 -2.47696,-0.288862 -1.468381,0.524376 -1.544832,0.523466 -1.848201,-0.02201 -0.174051,-0.31295 -0.264671,-0.679163 -0.201378,-0.81381 0.308572,-0.656412 4.216954,-3.05057 5.276212,-3.232043 1.434434,-0.245753 3.187175,0.385328 4.208622,1.515328 0.674522,0.746212 1.353849,0.97537 2.475642,0.835112 0.262209,-0.03278 0.602148,0.165871 0.755422,0.441454 0.249712,0.448989 0.329301,0.429613 0.765868,-0.186459 0.437943,-0.618025 2.394968,-1.389659 2.657135,-1.047681 0.05788,0.07554 -0.131291,0.355192 -0.420437,0.621463 -0.289139,0.266266 -0.698579,0.923615 -0.909861,1.460777 -0.369943,0.940558 -0.363255,0.998889 0.180968,1.578327 0.348516,0.371057 0.458875,0.659431 0.287919,0.752361 -0.152452,0.08286 -0.529617,0.438847 -0.838129,0.791044 -0.568594,0.649096 -0.838563,0.656498 -3.015488,0.08268 -1.003646,-0.264549 -1.013128,0.240491 -0.02192,1.16841 1.41315,1.32295 4.765717,1.078365 5.116153,-0.373242 0.08148,-0.337519 0.449507,-0.818563 0.817837,-1.068981 0.557668,-0.379145 0.741936,-0.385865 1.101537,-0.04016 0.403764,0.388166 0.378588,0.47878 -0.387331,1.394041 -0.897365,1.072317 -0.72563,1.242696 0.547586,0.543284 1.142179,-0.627436 1.554103,-1.325933 1.20963,-2.05114 -0.375831,-0.791191 0.203562,-1.795342 1.39866,-2.424022 0.517113,-0.272028 1.162836,-0.90565 1.434924,-1.408043 0.653848,-1.207231 1.645869,-1.848453 2.859715,-1.848453 1.302144,0 1.158499,0.64794 -0.264686,1.193883 -2.106572,0.8081 -2.249967,0.992262 -2.329691,2.991969 -0.05621,1.410334 0.0091,1.837135 0.299334,1.957248 1.250966,0.517618 1.188875,0.432114 0.763036,1.050758 -0.484267,0.703534 -0.50564,1.306712 -0.0463,1.306712 0.773392,0 3.246496,-2.267649 3.246496,-2.976793 0,-0.191591 -0.32328,-0.508776 -0.718401,-0.70486 -1.349908,-0.6699 -0.723734,-2.40513 1.290681,-3.57665 0.768663,-0.447032 1.574058,-0.580598 3.448126,-0.571848 2.247327,0.01046 2.445206,0.06026 2.445206,0.615014 0,0.331976 0.107754,0.603595 0.239474,0.603595 0.131704,0 0.239461,-0.28335 0.239461,-0.629671 0,-0.531422 0.158796,-0.629148 1.017743,-0.626316 0.842514,0.0029 1.15501,0.18912 1.815116,1.082398 0.452442,0.612266 0.94353,1.005311 1.135239,0.908595 0.185819,-0.09376 0.943163,0.357776 1.68297,1.003388 1.324167,1.155555 1.342811,1.192852 1.196736,2.393826 -0.08995,0.73954 -0.05318,1.219982 0.09326,1.219982 0.132896,0 0.674553,0.514241 1.203722,1.142762 0.738978,0.877755 0.901208,1.239189 0.699598,1.558572 -0.289388,0.458434 -2.736002,2.336029 -3.043985,2.336029 -0.106482,0 -0.296684,-0.460445 -0.422696,-1.023213 -0.158958,-0.709861 -0.374781,-1.023207 -0.704769,-1.023207 -0.748926,0 -0.7435,1.087296 0.0098,1.87655 0.764369,0.801313 0.709008,1.705749 -0.184768,3.018932 -1.245702,1.830219 -1.396534,2.88693 -0.788344,5.522757 0.19613,0.850027 0.357773,2.083556 0.359201,2.741171 0.0022,0.885833 0.166787,1.395726 0.636223,1.967719 0.3485,0.424632 0.714787,0.772056 0.813961,0.772056 0.09922,0 0.412825,0.586465 0.697012,1.30326 0.466159,1.175841 0.48943,1.46057 0.238098,2.912229 -0.153208,0.88493 -0.374837,1.854974 -0.492507,2.155656 -0.305108,0.779688 -0.28169,0.851777 0.384734,1.184904 0.547628,0.273733 0.598677,0.461827 0.598677,2.205933 0,2.09141 -0.311753,2.568443 -1.273358,1.948459 -0.287459,-0.18533 -1.457477,-0.428503 -2.60004,-0.540382 -2.292857,-0.224512 -2.761534,-0.671416 -1.679761,-1.601696 0.865206,-0.744058 3.158486,-3.609841 3.158486,-3.946996 0,-0.504702 -0.930499,-0.270583 -2.05846,0.517922 -1.023132,0.715218 -1.391767,0.787088 -4.037095,0.787088 -2.729196,0 -2.961872,0.0492 -3.722605,0.787091 -0.446299,0.432896 -0.938952,0.787086 -1.094801,0.787086 -0.15585,0 -0.431249,0.237083 -0.612013,0.526847 -0.295468,0.473648 -0.268195,0.504194 0.27001,0.302478 3.307292,-1.239555 4.004692,-1.02714 3.002492,0.914494 -0.340804,0.660262 -0.581562,1.352647 -0.535007,1.538633 0.04659,0.185985 0.701836,0.411329 1.456207,0.500764 1.111296,0.131747 1.444073,0.05729 1.75363,-0.392431 0.444778,-0.646161 1.027764,-0.236179 1.027764,0.722772 0,0.794276 -0.720537,1.383697 -3.294185,2.694758 -1.219131,0.621048 -2.27616,1.255868 -2.348953,1.410711 -0.20768,0.44181 -0.972912,0.329662 -1.301416,-0.190725 -0.39006,-0.617922 -0.686685,-0.596807 -2.22136,0.158101 -1.555323,0.765071 -2.328519,1.655537 -2.328519,2.681681 0,0.576201 -0.164991,0.82322 -0.658528,0.985927 -1.38342,0.456069 -3.091905,1.725367 -4.060763,3.016902 -1.772554,2.362892 -2.419659,3.540711 -2.586076,4.706957 -0.187893,1.316811 -0.661166,1.926426 -2.6386,3.398731 -2.051356,1.527342 -3.953364,3.745138 -4.443296,5.181001 -0.34,0.99645 -0.397099,1.767353 -0.291499,3.935443 0.139827,2.870762 -0.31115,5.253856 -0.943057,4.983411 -0.560483,-0.239869 -1.480093,-2.872525 -1.533077,-4.38888 -0.0511,-1.462042 -0.413819,-2.778216 -0.76567,-2.778216 -0.100735,0 -0.306926,0.162726 -0.458212,0.361622 -0.207109,0.272302 -0.423928,0.233412 -0.877605,-0.157408 -0.388128,-0.334355 -1.106422,-0.519051 -2.01856,-0.519051 -1.198053,0 -1.470468,0.107809 -1.769749,0.70041 -0.346683,0.68647 -0.393796,0.692681 -2.364016,0.31184 l -2.010283,-0.388593 -1.476276,0.980999 c -1.848832,1.228569 -2.560505,2.22039 -3.027913,4.219789 -0.202402,0.865817 -0.533212,2.140874 -0.735135,2.833524 -0.461471,1.582921 -0.470985,4.028694 -0.02206,5.667036 0.189794,0.69264 0.346705,1.503625 0.348689,1.802221 0.0058,0.87586 1.313442,1.59402 2.229319,1.22432 0.422195,-0.17039 1.22317,-0.46537 1.779951,-0.65548 0.823635,-0.28123 1.127635,-0.60434 1.630982,-1.733568 0.560841,-1.258194 0.741749,-1.421495 1.935763,-1.747399 0.724413,-0.197705 1.472172,-0.281246 1.661694,-0.185632 0.438594,0.221277 0.442655,1.271699 0.0085,2.172415 -0.184904,0.383511 -0.409887,1.299344 -0.499961,2.035174 -0.09008,0.73582 -0.301352,1.44421 -0.469503,1.57417 -0.333045,0.25742 -1.08902,2.04973 -1.08902,2.58193 0,0.42597 1.329077,0.42842 1.932904,0.004 0.617899,-0.43475 2.191401,0.1833 2.86439,1.12513 0.473118,0.66211 0.487964,0.84708 0.242626,3.02318 -0.143731,1.27484 -0.316598,2.67208 -0.384149,3.10499 -0.147299,0.94395 0.559981,2.56746 1.454062,3.33765 0.584043,0.50312 0.679371,0.50425 1.456361,0.0172 0.457274,-0.28668 0.97101,-0.52125 1.141633,-0.52125 0.488594,0 0.324671,1.38115 -0.206739,1.7419 -0.263415,0.17884 -0.493443,0.53301 -0.511179,0.78709 -0.01774,0.25407 -0.04468,0.63905 -0.05987,0.85551 -0.0475,0.67672 -1.115361,0.4301 -1.703892,-0.39355 z M 110.03148,38.054137 c -0.46586,-0.328266 -1.05511,-0.596846 -1.30944,-0.596846 -1.06209,0 -2.15647,-3.262852 -2.24203,-6.684644 -0.0444,-1.773018 0.0341,-2.203548 0.58949,-3.231968 0.51704,-0.957535 0.58892,-1.295377 0.37255,-1.750889 -0.19942,-0.419805 -0.19484,-0.775865 0.0179,-1.389652 0.15728,-0.453877 0.28598,-1.32455 0.28598,-1.934828 0,-0.610281 0.16164,-1.322111 0.35921,-1.581851 0.19756,-0.259738 0.3592,-0.877039 0.3592,-1.371782 0,-1.599801 -0.43775,-1.84049 -3.39144,-1.864694 -2.82125,-0.02311 -4.06934,-0.482114 -4.61422,-1.696929 -0.20473,-0.456446 -0.14853,-0.686677 0.28072,-1.150145 0.40658,-0.438961 1.14508,-0.633981 3.04588,-0.804314 2.60367,-0.233321 3.7311,-0.758778 3.00277,-1.399491 -0.5068,-0.445853 -1.48959,-0.400217 -2.68564,0.124704 -0.56434,0.247687 -1.45713,0.54862 -1.98396,0.668738 -0.52683,0.120118 -1.32443,0.5786 -1.77245,1.018846 -0.447994,0.440243 -1.403718,0.980509 -2.123816,1.20058 -0.72009,0.220072 -1.538893,0.675537 -1.819568,1.012138 -0.62687,0.7518 -2.020068,1.049887 -2.665509,0.570315 -0.263416,-0.195717 -1.502659,-0.426687 -2.753885,-0.513265 -2.220061,-0.153623 -2.257609,-0.168913 -1.556538,-0.633913 0.953569,-0.632477 0.908226,-1.079152 -0.119726,-1.179498 -2.131559,-0.208074 -2.428859,-0.369304 -2.349408,-1.274101 0.06456,-0.734771 0.282184,-0.942925 1.630999,-1.559759 0.899863,-0.41152 1.882781,-0.652766 2.329825,-0.571823 0.425306,0.07701 1.071862,-0.04731 1.436801,-0.276259 1.648187,-1.034021 17.326165,-1.7882217 19.112245,-0.919411 0.76878,0.373962 5.92655,0.129527 10.40707,-0.4932019 3.06213,-0.4255949 11.41235,-0.4172685 12.93799,0.012949 0.67521,0.1903808 1.51566,0.5436999 1.86766,0.7851479 0.37464,0.256985 1.35981,0.439799 2.37614,0.440938 1.707,0.0018 2.25703,0.374548 1.19732,0.811183 -1.37566,0.566822 -3.02186,1.757079 -3.35517,2.425895 -0.20357,0.408406 -0.31504,1.098271 -0.24991,1.546232 0.0864,0.593934 -0.0266,0.94159 -0.42503,1.308517 -0.47503,0.437457 -0.49272,0.524854 -0.14204,0.701769 0.2203,0.111146 0.40054,0.308875 0.40054,0.439397 0,0.130519 -0.72737,0.850567 -1.6164,1.600096 -1.8709,1.577335 -1.88008,1.591188 -2.06505,3.111979 -0.2613,2.148314 -2.38478,3.586495 -6.53102,4.423291 -2.32629,0.46949 -3.24084,0.796899 -3.9504,1.414251 -1.05529,0.918155 -2.99756,1.896119 -4.38678,2.208821 -0.6549,0.14741 -1.20451,0.570988 -1.77422,1.3674 -0.45397,0.634608 -1.12017,1.44127 -1.48045,1.792588 -0.3603,0.35131 -1.14588,1.430886 -1.74575,2.399061 -0.59987,0.96817 -1.30729,1.834787 -1.57205,1.925814 -0.26476,0.09103 -0.86253,-0.103076 -1.32839,-0.431342 z M 75.425526,22.198523 74.855422,21.400689 h 0.565115 c 0.310814,0 0.787579,-0.264694 1.059478,-0.588209 0.425236,-0.505953 2.769311,-1.217411 2.769311,-0.840523 0,0.469799 -1.063471,2.371391 -1.394324,2.493191 -1.532519,0.564178 -1.861626,0.528064 -2.429476,-0.266625 z m 9.38235,-4.182314 c 0.06133,-0.769795 -0.0105,-0.867066 -0.647871,-0.877253 -0.467139,-0.0075 -0.74296,-0.19 -0.791888,-0.524064 -0.111803,-0.763294 0.698006,-0.951656 1.8313,-0.425963 1.089693,0.505472 1.033749,0.489231 1.684929,0.489231 0.260104,0 0.508,0.28652 0.585645,0.676899 0.131053,0.658881 0.207037,0.671206 2.854664,0.463096 2.773139,-0.217973 3.254738,-0.106971 2.782378,0.641338 -0.203886,0.322989 -1.220874,0.422514 -4.317403,0.422514 h -4.050686 z m -5.079614,-3.233812 c 0,-0.367891 0.244764,-0.783041 0.580094,-0.983913 1.20845,-0.723907 3.984056,0.503111 2.996512,1.324671 -0.189093,0.15731 -1.071189,0.288192 -1.960203,0.290842 -1.463685,0.0043 -1.616403,-0.05532 -1.616403,-0.6316 z M 76.79172,50.618391 c 0.407371,-0.444487 0.829232,-2.619102 0.737045,-3.799249 -0.06981,-0.893948 0.0049,-1.000227 1.002159,-1.429396 0.592683,-0.255001 1.508642,-0.841531 2.035473,-1.303398 0.905187,-0.793579 0.957869,-0.926552 0.957869,-2.418092 0,-1.292052 0.130308,-1.78384 0.718395,-2.711295 0.395126,-0.623122 1.088505,-1.794655 1.540842,-2.603392 0.732617,-1.309867 0.899335,-1.450223 1.526603,-1.285282 0.387296,0.101827 1.166827,0.185155 1.7323,0.185155 0.868434,0 1.178377,0.189797 1.99547,1.221947 0.919523,1.161536 0.953399,1.270521 0.685248,2.204529 -0.248716,0.86631 -0.221765,1.061907 0.227749,1.652895 0.382931,0.503458 0.670772,0.617203 1.15638,0.456968 0.804301,-0.265405 3.271662,-3.287077 3.177837,-3.891761 -0.0729,-0.46952 -2.604521,-1.959412 -3.329484,-1.959412 -0.233853,0 -0.565766,-0.376867 -0.737585,-0.837484 -0.171826,-0.460614 -0.5818,-1.094407 -0.911068,-1.408422 -0.50611,-0.482671 -0.761912,-0.52157 -1.654525,-0.251593 -0.750729,0.227057 -1.131345,0.218526 -1.317078,-0.02954 -0.471096,-0.629201 0.529883,-1.23249 1.962708,-1.182927 1.034233,0.03577 1.402416,-0.08515 1.711805,-0.562208 0.216796,-0.33428 0.820824,-0.891134 1.342301,-1.237455 0.612254,-0.406605 0.975235,-0.880614 1.024648,-1.338047 0.06705,-0.621105 -0.02881,-0.70838 -0.778268,-0.70838 -0.733263,1e-6 -0.854786,-0.103354 -0.854786,-0.726911 0,-0.399804 -0.155084,-1.001928 -0.344622,-1.338051 -0.301142,-0.534043 -0.410261,-0.558375 -0.86496,-0.192898 -0.353236,0.283922 -0.886656,0.351997 -1.661023,0.211976 -1.112049,-0.201082 -1.147132,-0.181941 -1.397525,0.762395 -0.141267,0.53276 -0.35713,0.968657 -0.479712,0.968657 -0.122576,0 -0.354851,0.418906 -0.516153,0.930899 -0.213913,0.678966 -0.594423,1.077066 -1.405993,1.470975 -0.611985,0.297037 -1.246867,0.674107 -1.410842,0.837935 -0.197317,0.197143 -0.500966,0.123131 -0.897994,-0.218889 -0.966775,-0.832822 -0.69,0.0099 0.477727,1.454674 0.592684,0.733272 1.077603,1.503445 1.077603,1.711498 0,0.494949 -0.700026,0.689379 -1.367731,0.379881 -0.334475,-0.155034 -0.775623,-0.07676 -1.197337,0.212437 -0.851411,0.583882 -1.685056,0.581362 -2.544095,-0.0077 -0.539446,-0.369915 -0.906577,-0.398563 -1.786202,-0.13939 -0.608955,0.179422 -1.228667,0.458761 -1.377134,0.620754 -0.148459,0.161995 -0.719792,0.503208 -1.26963,0.758255 -0.549824,0.255047 -1.456478,0.868961 -2.014786,1.364251 -0.558308,0.495286 -1.368984,1.086903 -1.801491,1.314698 -0.432515,0.227802 -1.005174,0.779861 -1.272576,1.226806 -0.453129,0.75736 -0.458547,0.839205 -0.07966,1.203445 0.301586,0.289927 0.367308,0.64864 0.254592,1.389585 l -0.151937,0.99877 1.07013,-0.158583 c 0.946531,-0.140262 1.174737,-0.04155 1.975852,0.854741 1.142142,1.27783 1.62676,1.601548 2.821459,1.884711 1.403551,0.332667 1.622418,0.685119 0.963434,1.551502 -0.667868,0.878071 -0.992252,3.018168 -0.602578,3.975452 0.219197,0.538486 0.410486,0.636886 0.914682,0.470511 0.350632,-0.115706 0.772052,-0.357155 0.936468,-0.536564 z M 67.515432,18.539338 c -0.750827,-0.349656 -1.657046,-0.550559 -2.107852,-0.467301 -0.555963,0.102692 -0.831405,0.0068 -0.927584,-0.322656 -0.07525,-0.257789 -0.08674,-0.534525 -0.02556,-0.614968 0.190244,-0.25012 3.596321,-1.332686 4.890318,-1.554308 1.203536,-0.206129 1.245076,-0.185935 1.884292,0.915892 0.733413,1.264165 1.517358,1.466796 1.971985,0.509699 0.24038,-0.506054 0.226488,-0.665959 -0.07726,-0.889449 -0.315311,-0.231997 -0.320539,-0.326799 -0.03515,-0.638155 0.469931,-0.512765 2.277697,-1.318616 2.95804,-1.318616 0.927697,0 0.683114,0.935999 -0.389317,1.489845 -1.023033,0.52834 -1.218983,1.118684 -0.538801,1.623257 0.79379,0.588845 -0.07321,1.03634 -2.850853,1.471446 -3.360536,0.526412 -3.164138,0.534872 -4.752222,-0.204686 z m 14.008834,-0.124256 c -0.193135,-0.395149 -0.396853,-0.429517 -1.052891,-0.177652 -1.4267,0.547747 -3.893939,-0.907701 -2.903268,-1.712668 0.128983,-0.104806 0.452714,-0.03703 0.719407,0.150621 0.348444,0.245175 0.757428,0.244684 1.453518,-0.0018 1.17402,-0.415627 1.80721,-0.196058 1.982972,0.68762 0.110254,0.554283 0.253887,0.630123 0.881058,0.465209 0.625787,-0.164544 0.736329,-0.106748 0.670442,0.350544 -0.1051,0.729478 -1.423458,0.908703 -1.751238,0.238073 z M 71.94558,102.6282 c -0.08139,-0.17317 -0.626567,-0.31484 -1.211468,-0.31484 -0.584911,0 -1.063475,-0.14167 -1.063475,-0.31484 0,-0.17316 0.330177,-0.31483 0.73372,-0.31483 0.683567,0 0.728586,-0.0699 0.658537,-1.02321 l -0.07519,-1.023212 1.31707,0.10408 c 1.300758,0.102692 3.113068,1.236132 3.113068,1.946852 0,0.1707 -0.404107,0.31124 -0.898003,0.31231 -0.4939,8.8e-4 -1.206661,0.21357 -1.583908,0.47225 -0.813689,0.55793 -0.802029,0.5561 -0.990357,0.15548 z m -5.895951,-4.248572 c -0.409305,-0.790501 -0.906721,-1.245643 -1.767005,-1.616833 -0.658534,-0.28413 -1.493676,-0.713563 -1.855871,-0.954295 -0.56926,-0.378347 -0.754312,-0.372567 -1.365044,0.04271 -0.942554,0.640814 -1.617489,0.654828 -1.220119,0.02535 0.854454,-1.353596 3.929869,-1.735865 5.123343,-0.636831 0.276022,0.254193 0.638592,0.462155 0.805706,0.462155 0.167117,0 0.781179,0.479041 1.364589,1.064517 0.583411,0.585487 1.392547,1.257614 1.798078,1.493623 1.24281,0.723261 0.921871,1.219893 -0.788337,1.219893 -1.474852,0 -1.544647,-0.03661 -2.09534,-1.100224 z m 4.022677,-36.020467 c 0.494821,-0.905058 0.82818,-1.216581 1.263351,-1.180633 0.395246,0.03263 0.620652,-0.138771 0.680182,-0.517255 0.155793,-0.990685 -0.32282,-1.322924 -1.905791,-1.322924 -1.44358,0 -1.514115,0.0353 -1.45717,0.729138 0.03292,0.401029 -0.05892,1.02086 -0.204048,1.377404 -0.197138,0.484295 -0.186897,0.837397 0.04046,1.395998 0.42781,1.050968 0.808308,0.935178 1.582981,-0.481728 z m 0.01738,3.060402 c 1.360069,-0.697485 1.626593,-1.201269 0.635514,-1.201269 -1.001648,0 -3.209795,0.953913 -3.209795,1.386627 0,0.976072 0.360079,0.950147 2.574281,-0.185358 z M 64.455444,65.24151 c 0.201743,-0.303031 0.580116,-1.195887 0.840823,-1.984124 0.275358,-0.832535 0.889877,-1.866199 1.466311,-2.46643 0.545764,-0.568296 0.992294,-1.163039 0.992294,-1.321647 0,-0.384426 -0.724893,-0.365207 -1.580668,0.0419 -0.990942,0.471413 -2.938866,4.139857 -2.959169,5.572885 -0.01234,0.871033 0.704726,0.962034 1.240409,0.157416 z m 9.9714,-2.161576 c 0.787291,-0.724993 0.353642,-1.028941 -1.1009,-0.771644 -1.359381,0.240462 -1.633629,0.426789 -1.39024,0.944553 0.241046,0.512766 1.86928,0.399753 2.49114,-0.172909 z m -6.60866,-4.731485 c 1.19746,-0.260208 1.421486,-1.245965 0.56068,-2.467115 -0.716539,-1.016504 -1.314573,-0.982021 -3.676611,0.211996 -1.784561,0.902099 -2.200833,1.344015 -1.78322,1.893064 0.225369,0.296301 0.534068,0.293382 1.406176,-0.0133 0.958793,-0.337147 1.169838,-0.323998 1.486718,0.09262 0.406803,0.534836 0.673244,0.572384 2.006257,0.282726 z"
       sodipodi:nodetypes="sssssssssssscscssscccsssssssssssssscsssssssssssssssssssssssssssssssssssssssssssscssssssssssssssscssssscssssssssssssssscsssscsssssssssssssscscsssssscssssssssssssssssscssssssssssssssssscsssssssssssssssssssscsscsssssssssscssssssssssssscsssssssssssssssssscsssssssssssssssssssssscssssssssssssssssssssssssssssscssssssssssssssssssscssssssscssscsssssssssssssscsssssccsssssssccssssssscsssssssssssssssssssssssssssssssssssssssssssscsssssssssssssssscsssssscssscsssccssssscsscsssssssssssssscscssscccssssssssssssssssssssssss" />
  </g>
</svg>
