<?xml version="1.0" encoding="UTF-8" standalone="no"?>
<!-- Created with Inkscape (http://www.inkscape.org/) -->

<svg
   width="544"
   height="480"
   viewBox="0 0 143.93334 127"
   version="1.1"
   id="svg5"
   inkscape:version="1.1.2 (b8e25be833, 2022-02-05)"
   sodipodi:docname="SouthAmerica.svg"
   xmlns:inkscape="http://www.inkscape.org/namespaces/inkscape"
   xmlns:sodipodi="http://sodipodi.sourceforge.net/DTD/sodipodi-0.dtd"
   xmlns="http://www.w3.org/2000/svg"
   xmlns:svg="http://www.w3.org/2000/svg">
  <sodipodi:namedview
     id="namedview7"
     pagecolor="#ffffff"
     bordercolor="#666666"
     borderopacity="1.0"
     inkscape:pageshadow="2"
     inkscape:pageopacity="0.0"
     inkscape:pagecheckerboard="0"
     inkscape:document-units="mm"
     showgrid="false"
     units="px"
     inkscape:zoom="0.38796647"
     inkscape:cx="197.18199"
     inkscape:cy="613.45508"
     inkscape:window-width="1920"
     inkscape:window-height="1057"
     inkscape:window-x="-8"
     inkscape:window-y="-8"
     inkscape:window-maximized="1"
     inkscape:current-layer="layer1" />
  <defs
     id="defs2" />
  <g
     inkscape:label="Layer 1"
     inkscape:groupmode="layer"
     id="layer1">
    <path
       id="path18546"
       style="fill:#38761d;stroke-width:0.418212;fill-opacity:1"
       d="m 53.275384,108.24074 c -0.176113,-0.19726 0.02563,-0.25558 0.472965,-0.13675 0.870793,0.23132 1.030107,0.48073 0.307099,0.48073 -0.260144,0 -0.611175,-0.15478 -0.780064,-0.34398 z m 18.038838,13.30314 c -1.318955,-0.48855 -3.097477,-0.95986 -3.521517,-1.13785 -0.425807,-0.17873 -0.855782,-0.33852 -1.569186,-0.49148 -0.616746,-0.13232 -2.049448,-0.85476 -3.182548,-1.60843 -1.133115,-0.75366 -2.224947,-1.37029 -2.426312,-1.37029 -0.362269,0 -3.943951,-3.6427 -5.02397,-5.10958 -0.307791,-0.41802 -0.559614,-1.31287 -0.559614,-1.98855 0,-0.85905 -0.292797,-1.33696 -0.973565,-1.58919 -0.777149,-0.28793 -0.916139,-0.60574 -0.688911,-1.57513 0.169587,-0.72339 0.03828,-1.41992 -0.324551,-1.72262 -0.335098,-0.27952 -0.474898,-0.80127 -0.310677,-1.15942 0.164199,-0.35818 -0.01841,-1.10948 -0.405969,-1.66952 -0.387484,-0.56007 -0.965567,-2.1144 -1.284611,-3.454052 -0.319041,-1.33965 -0.989793,-3.37524 -1.490554,-4.52352 -0.794453,-1.82176 -0.844368,-2.52784 -0.391739,-5.54145 0.435806,-2.90164 0.386365,-3.81933 -0.309368,-5.74139 -0.914298,-2.52588 -1.251486,-5.443367 -1.591574,-13.770495 -0.341327,-8.357302 -1.200233,-9.697271 -8.31311,-12.969258 -4.674049,-2.150098 -5.609569,-2.846029 -7.942424,-5.908288 -5.690814,-7.470146 -7.470726,-9.626706 -8.910947,-10.79657 -2.023714,-1.643843 -2.575888,-3.498767 -1.47872,-4.967525 0.598395,-0.801075 0.685494,-1.327196 0.334961,-2.023313 -0.260558,-0.517402 -0.44295,-1.248121 -0.40532,-1.623822 0.130936,-1.30733 2.051213,-4.399663 2.935557,-4.727309 0.489609,-0.1814 0.89021,-0.52833 0.89021,-0.770962 0,-0.242633 0.64791,-1.059195 1.439781,-1.814562 1.175405,-1.121207 1.503254,-1.875894 1.785411,-4.109725 0.274977,-2.177116 0.193619,-2.852658 -0.398137,-3.305651 -0.946137,-0.724268 -2.463071,-3.786131 -2.085364,-4.209206 0.290078,-0.324904 3.024648,0.163734 4.078031,0.728707 0.346275,0.185719 1.423011,-0.401475 2.931822,-1.598838 1.527049,-1.2118317 3.047458,-2.0375167 4.227879,-2.2960107 1.013816,-0.222007 2.611108,-0.707697 3.549524,-1.079305 1.861525,-0.73713 3.22469,-0.629795 2.755328,0.216958 -0.390429,0.704315 0.528637,0.684489 1.566217,-0.03383 0.711457,-0.492505 1.003145,-0.506314 2.172134,-0.102833 0.742683,0.256334 1.802718,0.731618 2.355629,1.056177 1.424352,0.83609 6.154287,1.220838 10.052892,0.817735 2.198702,-0.227344 1.238201,-0.699057 10.740687,5.2749297 3.305175,2.07788 4.527422,2.569951 6.38351,2.569951 3.823906,0 9.286548,2.422668 9.993013,4.431866 0.185949,0.528853 0.853002,1.509602 1.482333,2.179424 0.629332,0.669832 1.292602,1.632383 1.473962,2.139024 0.37845,1.057339 2.04078,1.798948 7.23906,3.229573 1.99946,0.550265 4.013675,1.289862 4.476025,1.643548 0.46237,0.353676 1.20145,0.64541 1.64238,0.64829 0.44096,0.0029 1.7065,0.230884 2.8123,0.506668 1.10584,0.275784 2.73218,0.508307 3.61413,0.516711 1.12324,0.01066 2.55357,0.519157 4.77514,1.697502 1.74435,0.925228 3.85014,1.837141 4.6795,2.02648 1.99959,0.456494 2.96837,1.9021 2.99457,4.468421 0.0182,1.812846 -0.1994,2.307778 -1.65409,3.758346 -4.50155,4.488652 -5.24668,5.740273 -5.9449,9.986193 -0.89799,5.460889 -1.08536,6.104415 -2.53273,8.699083 -1.61184,2.889479 -2.70073,3.68436 -5.94028,4.336309 -1.44341,0.290481 -2.90783,0.7646 -3.2543,1.053601 -0.34648,0.289001 -0.84192,0.52546 -1.10097,0.52546 -0.25907,0 -1.475425,0.581199 -2.702995,1.291559 -2.15958,1.249658 -2.23199,1.355613 -2.23199,3.266581 0,1.486649 -0.3952,2.565471 -1.59823,4.362846 -0.87904,1.3133 -1.89689,2.51304 -2.26189,2.66608 -0.36503,0.15304 -0.66367,0.46644 -0.66367,0.69642 0,0.23 -0.91929,1.63264 -2.04284,3.11699 -2.651958,3.50355 -3.923023,4.03062 -7.301949,3.02796 -1.305087,-0.38726 -2.551878,-0.66007 -2.770663,-0.60622 -0.218808,0.0539 0.588652,0.85062 1.794328,1.77063 1.983472,1.51353 2.149869,1.77477 1.748047,2.74466 -0.810654,1.95673 -3.890998,3.46183 -7.260235,3.54743 -1.544669,0.0393 -1.677361,0.27685 -1.004155,1.79811 0.199278,0.45033 -0.033,1.0149 -0.626126,1.52201 -0.909583,0.7776 -0.998811,0.78614 -2.521555,0.24102 -2.053382,-0.73509 -2.232098,-0.716 -2.040511,0.21778 0.129168,0.629907 0.480751,0.782227 1.798614,0.779357 1.944871,-0.004 2.657512,0.938525 1.42317,1.882715 -0.43959,0.33627 -0.821823,1.06881 -0.849374,1.62787 -0.06553,1.32822 -0.605515,2.62877 -1.080829,2.60286 -1.652887,-0.0901 -1.943813,0.0329 -1.794222,0.75882 0.09348,0.45353 0.580912,0.83175 1.165912,0.90466 1.340106,0.167 3.645801,1.32309 3.645801,2.0329 0,0.31283 -0.710704,0.97755 -1.116601,1.34905 -0.405885,0.37148 -0.745171,1.24958 -0.753955,1.95129 -0.0094,0.70173 -0.287791,1.33861 -0.620008,1.41524 -1.099278,0.25368 3.685753,4.52597 6.51531,5.81718 1.459246,0.66588 2.841876,0.90149 2.615012,1.07428 -0.943111,0.71841 -6.037025,0.7939 -8.830424,0.41886 z m 16.780143,-5.11018 c -0.15052,0.20201 0.95231,-0.22247 0.93706,0.2103 -0.009,0.25548 0.83192,-0.2014 1.27945,-0.33575 -2.2097,0.29038 1.47205,-0.1202 -0.64247,-0.0146 l -0.30155,-0.12399 c -0.18604,-0.0159 -0.41153,-0.0849 -0.71618,-0.0925 0,0 -0.43971,0.19959 -0.55631,0.35608 z M 108.4801,66.387863 c 0.8748,-0.625455 1.44677,-1.384769 1.56485,-1.331447 0.28665,0.129457 -2.56339,2.177461 -3.03019,2.177461 -0.20107,0 0.59056,-0.220547 1.46534,-0.846014 z m 2.35989,-2.864365 c 0,-0.191383 0.21927,-0.582836 0.48725,-0.869903 0.268,-0.287078 0.48725,-0.365366 0.48725,-0.173983 0,0.191371 -0.21925,0.582835 -0.48725,0.869903 -0.26798,0.287068 -0.48725,0.365364 -0.48725,0.173983 z m 1.59052,-3.479634 c 0.0118,-0.574135 0.123,-0.766888 0.25035,-0.428333 0.12732,0.338566 0.11913,0.808316 -0.0182,1.043886 -0.13778,0.23559 -0.24195,-0.04143 -0.23173,-0.615553 z" />
  </g>
</svg>
